<mxfile host="65bd71144e">
    <diagram id="XQhv4dpxdAKgHNnhRdgr" name="Page-1">
        <mxGraphModel dx="3652" dy="2507" grid="1" gridSize="10" guides="1" tooltips="1" connect="1" arrows="1" fold="1" page="1" pageScale="1" pageWidth="1169" pageHeight="827" math="0" shadow="0">
            <root>
                <mxCell id="0"/>
                <mxCell id="1" parent="0"/>
                <mxCell id="2" value="" style="rounded=1;whiteSpace=wrap;html=1;" parent="1" vertex="1">
                    <mxGeometry x="482.5" y="-110" width="500" height="290" as="geometry"/>
                </mxCell>
                <mxCell id="3" value="Block Chain" style="text;html=1;strokeColor=none;fillColor=none;align=center;verticalAlign=middle;whiteSpace=wrap;rounded=0;fontSize=24;" parent="1" vertex="1">
                    <mxGeometry x="607.5" y="-150" width="230" height="30" as="geometry"/>
                </mxCell>
                <mxCell id="4" value="" style="rounded=0;whiteSpace=wrap;html=1;fontSize=24;" parent="1" vertex="1">
                    <mxGeometry x="547.5" y="-51" width="120" height="190" as="geometry"/>
                </mxCell>
                <mxCell id="5" value="Smart Contract" style="text;html=1;strokeColor=none;fillColor=none;align=center;verticalAlign=middle;whiteSpace=wrap;rounded=0;fontSize=18;" parent="1" vertex="1">
                    <mxGeometry x="527.5" y="-80" width="160" height="20" as="geometry"/>
                </mxCell>
                <mxCell id="6" value="" style="shape=cylinder3;whiteSpace=wrap;html=1;boundedLbl=1;backgroundOutline=1;size=15;fontSize=18;" parent="1" vertex="1">
                    <mxGeometry x="762.5" y="-50" width="180" height="190" as="geometry"/>
                </mxCell>
                <mxCell id="7" value="Strage" style="text;html=1;strokeColor=none;fillColor=none;align=center;verticalAlign=middle;whiteSpace=wrap;rounded=0;fontSize=18;" parent="1" vertex="1">
                    <mxGeometry x="772.5" y="-80" width="160" height="20" as="geometry"/>
                </mxCell>
                <mxCell id="8" value="・previous owner" style="text;html=1;strokeColor=none;fillColor=none;align=left;verticalAlign=middle;whiteSpace=wrap;rounded=0;fontSize=18;" parent="1" vertex="1">
                    <mxGeometry x="772.5" y="-10" width="160" height="30" as="geometry"/>
                </mxCell>
                <mxCell id="9" value="・previous trades&lt;br&gt;&amp;nbsp; &amp;nbsp;- timestamp&lt;br&gt;&amp;nbsp; &amp;nbsp;- payment" style="text;html=1;strokeColor=none;fillColor=none;align=left;verticalAlign=middle;whiteSpace=wrap;rounded=0;fontSize=18;" parent="1" vertex="1">
                    <mxGeometry x="772.5" y="36" width="160" height="76" as="geometry"/>
                </mxCell>
                <mxCell id="10" value="・previous trade" style="text;html=1;strokeColor=none;fillColor=none;align=left;verticalAlign=middle;whiteSpace=wrap;rounded=0;fontSize=18;" parent="1" vertex="1">
                    <mxGeometry x="772.5" y="14" width="160" height="30" as="geometry"/>
                </mxCell>
                <mxCell id="14" value="" style="shape=flexArrow;endArrow=classic;html=1;fontSize=18;entryX=0.008;entryY=0.154;entryDx=0;entryDy=0;entryPerimeter=0;" parent="1" target="4" edge="1">
                    <mxGeometry width="50" height="50" relative="1" as="geometry">
                        <mxPoint x="362.5" y="-22" as="sourcePoint"/>
                        <mxPoint x="362.5" y="-110" as="targetPoint"/>
                    </mxGeometry>
                </mxCell>
                <mxCell id="16" value="" style="shape=flexArrow;endArrow=classic;startArrow=classic;html=1;fontSize=18;" parent="1" edge="1">
                    <mxGeometry width="100" height="100" relative="1" as="geometry">
                        <mxPoint x="672.5" y="44" as="sourcePoint"/>
                        <mxPoint x="763.5" y="44" as="targetPoint"/>
                    </mxGeometry>
                </mxCell>
                <mxCell id="20" value="" style="shape=flexArrow;endArrow=classic;html=1;fontSize=18;startArrow=none;" edge="1" parent="1" source="22">
                    <mxGeometry width="50" height="50" relative="1" as="geometry">
                        <mxPoint x="542.5" y="20" as="sourcePoint"/>
                        <mxPoint x="362.5" y="20" as="targetPoint"/>
                    </mxGeometry>
                </mxCell>
                <mxCell id="21" value="Cool off" style="text;html=1;strokeColor=none;fillColor=none;align=center;verticalAlign=middle;whiteSpace=wrap;rounded=0;fontSize=18;" vertex="1" parent="1">
                    <mxGeometry x="392.5" y="-60" width="110" height="30" as="geometry"/>
                </mxCell>
                <mxCell id="23" value="Locked ether" style="text;html=1;strokeColor=none;fillColor=none;align=center;verticalAlign=middle;whiteSpace=wrap;rounded=0;fontSize=18;" vertex="1" parent="1">
                    <mxGeometry x="392.5" y="44" width="110" height="30" as="geometry"/>
                </mxCell>
                <mxCell id="24" value="" style="group" vertex="1" connectable="0" parent="1">
                    <mxGeometry x="266.5" y="74" width="100" height="130" as="geometry"/>
                </mxCell>
                <mxCell id="18" value="" style="shape=actor;whiteSpace=wrap;html=1;fontSize=18;fillColor=#dae8fc;strokeColor=#6c8ebf;" vertex="1" parent="24">
                    <mxGeometry width="100" height="102.14285714285714" as="geometry"/>
                </mxCell>
                <mxCell id="19" value="Seller" style="text;html=1;strokeColor=none;fillColor=none;align=center;verticalAlign=middle;whiteSpace=wrap;rounded=0;fontSize=18;" vertex="1" parent="24">
                    <mxGeometry x="12.5" y="102.14285714285714" width="75" height="27.857142857142854" as="geometry"/>
                </mxCell>
                <mxCell id="22" value="" style="shape=image;verticalLabelPosition=bottom;labelBackgroundColor=#ffffff;verticalAlign=top;aspect=fixed;imageAspect=0;image=data:image/png,iVBORw0KGgoAAAANSUhEUgAAAgAAAAIACAMAAADDpiTIAAADAFBMVEUAAAAAAAAAAAAAAAA/AAAzMzMqKiokJCQfHx8cHBwZGRkuFxcqFSonJyckJCQiIiIfHx8eHh4cHBwoGhomGSYkJCQiIiIhISEfHx8eHh4nHR0lHBwkGyQjIyMiIiIgICAfHx8mHh4lHh4kHR0jHCMiGyIhISEgICAfHx8lHx8kHh4jHR0iHCIiHCIhISEgICAlHx8kHx8jHh4jHh4iHSIhHCEhISElICAkHx8jHx8jHh4iHh4iHSIhHSElICAkICAjHx8jHx8iHh4iHh4hHiEhHSEkICAjICAjHx8iHx8iHx8iHh4hHiEkHSEjHSAjICAjHx8iHx8iHx8hHh4kHiEkHiEjHSAjICAiHx8iHx8iHx8hHh4kHiEjHiAjHSAiICAiHx8iHx8hHx8kHh4jHiEjHiAjHiAiICAiHx8iHx8kHx8jHh4jHiEjHiAiHiAiHSAiHx8kHx8jHx8jHx8jHiAiHiAiHiAiHiAiHx8jHx8jHx8jHx8iHiAiHiAiHiAiHiAjHx8jHx8jHx8jHx8iHiAiHiAiHiAjHiAjHx8jHx8jHx8iHx8iHiAiHiAiHiAjHiAjHx8jHx8iHx8iHx8iHyAiHiAjHiAjHiAjHh8jHx8iHx8iHx8iHyAjHiAjHiAjHiAjHh8iHx8iHx8iHx8jHyAjHiAjHiAjHiAiHh8iHx8iHx8iHx8jHyAjHiAjHiAiHiAiHh8iHx8iHx8jHx8jHyAjHiAjHiAiHiAiHh8iHh8jHx8jHx8jHyAjHyAiHiAiHiAiHh8iHh8jHx8jHx8jHyAiHyAiHiAiHiAiHh8jHh8jHx8jHx8jHyAiHyAiHiAiHiAjHh8jHh8jHx8jHx8iHyAiHyAiHiAjHiAjHh8jHh8jHh8iHx8iHyAiHyAiHyAjHiAjHh8jHh8iHh8iHx8iHyAiHyAjHyAjHiAjHh8jHh8iHh8iHx8iHyAjHyAjHyAjHiAjHh8iHh8iHh8iHx8iHyAjHyAjHyAjHiAiHh8iHh8iHh8iHx8jHyAjHyAjHyAjHyC1acVFAAAA/3RSTlMAAQIDBAUGBwgJCgsMDQ4PEBESExQVFhcYGRobHB0eHyAhIiMkJSYnKCkqKywtLi8wMTIzNDU2Nzg5Ojs8PT4/QEFCQ0RFRkdISUpLTE1OT1BRUlNUVVZXWFlaW1xdXl9gYWJjZGVmZ2hpamtsbW5vcHFyc3R1dnd4eXp7fH1+f4CBgoOEhYaHiImKi4yNjo+QkZKTlJWWl5iZmpucnZ6foKGio6SlpqeoqaqrrK2ur7CxsrO0tba3uLm6u7y9vr/AwcLDxMXGx8jJysvMzc7P0NHS09TV1tfY2drb3N3e3+Dh4uPk5ebn6Onq6+zt7u/w8fLz9PX29/j5+vv8/f7rCNk1AAAjP0lEQVR42u1dd3wVZdY+N8klCSShBwKEaugiGKoUC7AIawTFKKibhRWyimIExagselF3jYUSjbqxgMSCBrAQddV8IlJUNCIgSEdCLyFAgPSb+X4hIdw+78ydmfs+977PP/wDl3PO88zMW04hChSEtul344R7H0vL/Ojz3A2/7s0vLCwstEqSJJUUFhYW7N2Rtzb343dfeebhe8Zf3zPaRAL+AVNM/1tT5n20ZvtpSQkqj2z+6p25U0f3iBIhBIW58+jp6V/sLJO8xOm8D5+dPLSlCCgQ9R0TUrPySiRNcSYvKzWho/gycI6I+KT0dRpTb4uz69KT4uuJOHP53Pd74N2dVskAXPhhwYT2IuA8IXr8/PUlkqE49tnjQ0JF5DlAy8T0vCrJJyjPS0sQuwRfImpsxk7JtyhbPbt/sGDCBwgaaFlXIXGBU8uSYwUhhqJ+QuZhiStsSxsRIngxBq0f+KZM4hDHF40NE+zojXYp66wStyjOSRKrQh3R/omNEu8o/nRifcGUHmiSlFslQaA4O8Es+NIWYRO/qJCAcCKjvyBNO8Snn5TgsD21hWBOCzR/eKuEifLPxoqtodcPf2axBIwjaW0Fh+oRmbxJQoc1N0FkEahD3MtFkl9g5/0Rgk3FGJJdKfkNzqaLBAJFCL3nd8m/ULlskKCVFREpByU/xDqxGGDb9llOSX6KLUliWyiHNhklkh9jX7JIKfWE2HS/pr8a+Sniztgd2vo//dU4ICTgEs3SAoL+ixJIFmsBp5V/6lkpgLA9UewIbBE+q0AKMPw8QtB+CabEfVIAIreXoP4iBq6XAhPWLFF0TBT3sRS4KJodHuD017eUSgGNg0kBzX9CvhTwWNUjYOnv+o2gvzpzLD0wawnCLeWC/BocDcTvwLAdgvjL+CLQEkYaZVYJ1m1RbAmoa8LEo4JyR2yKDxj6Y5YLul2gIi0wbglNSacE2a6xe1gA8N95rSDaLSpf8vuXQNI5QbMnbOvt34v/pYJiGZSkBvkv/8MPCYIZrolb+Sn9ZotVsMuCEzf7Jf/dNgpqWZHVwP82f8kXBK/s2H61n/Ef/YUgVRHKZvlV1mj8fkGpUnze2H/4Ty4TfKo4F7zST+gPe0uQqe6GcJJf8B+7QVCpFpl+0G/wuuOCR/VYG4O++0utFCx6g8PXQPMfKW7+vUVFKjD/cSLvTwMsgk0WG3RCsKcF1jXD5P+2YsGdRicCcYj8p4i7P81wcjAc/SGvCdo0RMntYPxHiMsfbVFlgeK/lbj71/5UEKivUK8Dgi/t8VUkCv+jROavLvgFZDt4U4ngSh9sb43A/wRR9a0b/uzEP/9TxfZfRxzozDv/0wT/uuIY573lUgVFOqNwAM/8WwRBuuPcDfxmfywQ9BiAC3/hlP8gkfxpDEr5LB0zZQpqDEL5TTwK4EVBjGEoG8Uf//8WtBi5DhjKG/+zBSmG4gxnPcWmC0oMxkmuWgxPEm0fjT8T7MJR+qeo/vABDnDTXnasuP/zCXZzUjc2qlRw4RtsacID/31E/o/PsJaDvpKtDgoefIePfN5IJmoLcPhq164VwC7828f8m78GDl5pVs2f85HfAff5VgDQ9T9z59T8GYNcxFzu08vhJ5D5z29QK4CmI5HdKLrKd/wnQicAjqNLAqAVyH4cauMr/odAFwB8Q5cFEHse2ZONEb7hvxN0/4eyLjYCwP6WSV/6pGwwCrv/SxrZCiB0J7Qz83yRAYbd/+lghJ0ACHodKEl/ExkgCnEH2QuAsPV8vqfR/A/HvgFeY3IUQCz2lcauRsby3+4kdLgqavow2wqAHsd+pa00dNRQWB52tGoXTXYCqLcd26fZRgrgbexYHWvoQgA0Atsp62gDS4CxQ1W3ZrYXAGVje1XY0Sj+B4KnAK0zuRZAG/DUlk31jeE/Gnz6X2XdcE4HAcAXty825gQoBzxMr5A7AdT7A9y1O0UNiDwKmroVAA0H9+2MAZni3dFbQN9D7gVAH4E7ty5Yb/5DN4GHKC/IkwDQ14HSv/QWwHzwAFltW+w4C4AeBfevYpC+/I9ELwLMJM8CCNkC7uDeKD35b4zeBLiwuYwAaBi6xBfpKQDwszLHJGpXAqCl6D5O0I//ZPTYbAyWF0DLs+BOnm6rF/+dz4OHpsphCJ9LAdAj6DJfpdPNcNAa9Mg4HpW6FgD8OlCapo8A7kOPy9kYJgHQUPR14NlYXcqAT6MLIIXYBEAfoHv6hR4C+AQ9KlvNrAJoeQbd1zu05/929JhI1xOrAOhhdF9Paj5dpuFh9Jh8QOwCCNmM7q3mx0GL0CNyrrUCAdAQ+L53I7Xl/zr4gDxKSgRA76H7+2cDLfkP340ej12hygTQAn4d+IKWAsDvBH4jKRMAzUT3uLKvdvz3qkCPxnJSKgD888A87U6Ev0OPRXF7xQLwg3Vgslb83wn/AXCTKOVRAPQuutenNDoMiDiEHok9YWoE0AL+7PtVbQTwPPwL4K+kRgD0EPw6sLcW/MeVocchh9QJAP88cI0WAvgUPQqlnVUKgAbDrwPHe8//tfAfgLmkVgCUhe773lCvKwF/QY/BgQbqBYC/DpzhrQD+Bv8CuIXUC4BS0L0vbOrlJUA+egS+Jm8EEIJeCSct8E4A6JVSUllXrwSAvw4s6+BVGkgBugCeI+8EQO+gR+ANbwTwLLr3hyK8FUA0+jqwvJN6/psXoQvAc3IkiwDwh6K+o14Ar8CfhJm8F0DwRvAgVHZVy3879EPgCpn5ukwCoGvQ14EfqBXAf9FfAPNJCwHQYvAwWHup4z8WfSLopYag3goguhA8EMvVCeA19BeAbBN9RgHQA+CBqOqnhv826C+A9SatBBD0M3goctQIIAN98SufDcEqABqEvg4coJz/Fuj9ADNIOwGgt0eXVioXwHPgLhc01VIATcHPxKsUj5SJQj8BnUJaCgC+Q/6SQLsGZKqKUCCAoA3Y8Shvp4z/UPBqcCvTqkeBAKivFTsiC5UJ4B7wF8CbpLUA6C3siJxvokgA4AnR9g1BtRFAU+xBadLjSvgHn6PJ2idNkQDQu6QdNisQwOfYvm4M1kMA6OvAiQqKgbAXPFXDSA8BoK8DfwmYRBDmFBiFAqA3sOPCPEogCjsT7ExLvQTQDPs8cCmrn+CnXg+RXgKgf0IHpqwFo5vYzVG2mfUTQNBP0KF5jM3LodgvgOtJPwFQPPQ6MJ9td4TdKllJBqRyAVAmdHCY5ks3g84EutBWXwE0gT4P/IzFReyBGY+SvgLAHptTGevvS8BdoXoLIOhHP18G9vf/j5xXAqD4SuD47JRNlKXXkflXmACvSgDYERos510YchFEcXsjBND4BHCI3pLzbiKyvOeQEQKgKcAhKpLrIv8lsHPuGoJqLQDodeBdMh0ByoF9u4mMEQBdDbwO/Nyza/cD8/8VGSUA5LLJimiPnq3H9cx9Q1DtBYC8DrzPY0sI4Bq4p8k4ASBnTXvsH/w4rl/76xspANMPsIGq8nRb8huuAG4lIwVAfXDXgTPde9UBl/9cMlYAwNXz6907NQvWqbKuRgug8XHYb4D7K0HchKc0MloA9A/YYD3gzqXWsHuAo1HGC8D0PWq0vnPnEm4vpAlkvACoN+o6sNLdWVAuKv9rTb4QAG79zGQ39SCojUErVDZC9FYAUUdAA+YmbeI2VEHPJ98IgCaBBuyc68Q51M74xxr5SgCm1aAhG+nylvsYqDdJ5CsBUE/Qqdou+8UMRD3YMvlOAJSOGbM9rnyxYPpi7Uc+FADqOrCT/6QCZJAvBUB/x4yai6SASMxksFNNfSsA0HXgx86ejMOU8hTyrQCoJ+SDczrEyZFXIflnagiqqwBoIWTgnNvF7IRcAfYnnwug4VHEyD3p6EYMpI7fJN8LAHO8stON4J2IXjA2BNVZAKbvAENX4lhEAzkh7H7iQQDUA3EdOMTBiT8AfdgSwocAaAFg8GY7lIQBJgMxNwTVXQCRgM31v8a/Cl5CvAiA7saL3jn7bnrz8Tw425IfASCeB/a18wCw0GUG8SMAxHWg3QrajDcjbpuZJwHQPLgAZtmaD9gZ6nriSgCRh9ACuMvW/Olw/C8lvgSAd5JW1czG+vfQrL/QjjcB0LdoMRyDfBOUStwJAG4daLFJbELrga2sIagxAqCXwIJo0zgYrkH8aOJQAGjrwAOXTX8QjP8VxKMA4HosXl4FLsYyvLgDnwJAWweOqDMcrDPMHG3oCrtnV+2Wsq9GAuiOtQ6cdcnuelh2K24I6hItn7Zp8bH2tmBNFPACVCDfr0tsxXoB3KQBU70zHQ6/D1uaaPCzEVDrwE2XzL4Div+vvKYpKMFVJ4Rzmd28VwBUKEuCEYvCyjp7u1tL3uHmp625CSZvFfA/pFjG1Rq9DMnoZ7wjqGOax4EIO1Lqe/f7cUgjt8bWGr0N6fSigTf0DMmW7etzIq2NVwp4HiiYT9QmAyBtAsarpyZ0ksN298fa9/XL9qPgyrKu9mYdeBAnmO/VmNwZiP9c1cREp9qv0K05g+sOgkKTfrf/b/KS1Ccc344TzZ9rLB4DtALsqpKVqxy2fWfS29qfBDp+HPalNvb/dWAh3E3A8+q2fSNy7LPed6c0cD4KviL9vN1fKsrs6vfrwJqzD5w2J6oagkYmb7f/lXV1mz2Hu4ColP2abAufgwloTW3tFzD2TlRORgeHbV9pVk8Pl0FOR0SbksOV/5/1/0QJ6J1Y6UDKG4LGZ9m38TpqaSZ3GxifZb8pOp7WWrECYMpsLhaJB6E0CK3oqYyGekkb7X9gw0Qzy3Vwm+dO2b80FvdWqoCvQUL6DlRngAWKOGieetBh2zeCOR8gNGmrw7IhMdgv14GrkGoCFDUE7ZJuv+07m95OWULIEIeNw15l28L/YMR0N9IH6+/eb/sUZQTFOW0Lu/jdOrC0elU1A4N/5oagEcl/sL6/ZVLCGqbky35F3GE8RlSjYQqDWRuCtrI4rOCyrvQiJzA4YZ29Gb8xbwsxNtfxRPQRhKWvsd32Lbc/0D08u5m3SaGDPnLYSc6J9qN14DgiWotg6KlmDNu+RIci943JYVpkBcdYChxeKkwDKp5FiOt9KOdAU2Xj3SjlgOIPNmtaeFjSNuXbwvB9AHF9iojOANgp2xC0c/oFh21fe03rAkyOG4s9qbK70lswvqxhCCvAgZqzo7wwRLnGANaBK4jaAgjgTc/bPhXvZ1WVQQ0VfmWuKOE+smuJ+vHPv6eGoDFO2z4FI8QUl4aZla0zn+E+tLuIRvMvAPcNQa/JdtyjKWoeq6Y2cMgy9p1mOPfngYUIrU1+D3H3OK5Xe0rjVXGogrMm7ocwWINoGu82Vl2ryQdZy+pg9tPmz3mPbkN6gncTl7i+qbFfkiu6qdGgPJz1vqkT7+vA9twXMhS1kt/27VWZwutVfwDnbaGrG+e5nIe3N2VybuEM52M5L7M1NGsQwZJzEr6X7/BeRx/ybeBWhyyuWMckT+X5WpoJoDrr7Fd7c52yzuhmvuM7jvdlyg2kdcamlgKQzzslyuE6vndy3tfmQ7uyfofLeVU521oLQCbznPd14BT6kWfzbBqCOqXnaFDMr1WTqAj3tSe8t194kDbzbN5jdcfqWtVt6SIAz9tCrteBqbSLY+t2h7pO0fWiclMnAbitP63GjRyH2EI8tzUaXZOkr2Htto4CcF2BfhEr+Q3xC3SSX+M+vlimY5+PVbbkatIMWjeKdNGD4o5qsXbkdx7Hy3SaW9uKO9DVDts+b/u36C2Ai40G7LeFRyxNiZ7iNsivUhG/nyfHUl2vOzgZIQDnPlQlWT1CuU28zKTz3ArguP0HdeVw0hr6CIAo6iH7hX/Vl9yOGH+bMGqDNeniaJgA3PWi5BDvUCWAldr0cTVSAK660XKJd4n/mbFadXI2WABELece5z64S3kXQHn2ININOgug+rZwM+cCeJ8qeDbvTHosEbAA2JqT+hJZxPFd1U6tt32+EED1tpDfsxZpEbfbwCoNbvv4EABRZAq3+eFvcloaWPJqZ9IfRgmAKHj8Oj4F8F8q5PP5z471KwFQ/Ho+BZBBvO5Uzj5Sz38E0HIxr5uthbSf2/XJrr/6iQDMKfyW4P+HtnO8R8nt5g8CGL6V4xDPoV+5PgZKj0QXQKdsrg+CHqF1XNsnHU4yIQugvoXz2rBp9A3vp9U/D8AVQEI+79GdTJ9yf19hzYrGFEAfgAZsd9C7/BspnU4JwRNAk3SEm/Yx9IqEgB2jwAQQknwSIrCDAPrY1CCnA5IArt8CEtZu9DCIpVJxWgSKANpkoQRViqF7YGyVDiZBCCDcUowT0zCUvuY1+O5K/gWQ8CdQQEuJbkASgFSR3ohvAfT6DiqeR4l6Slg4lRLMrwAap1dgRXMzUXMJDRuHcCqAoKQTaLH8hiioAk4BVdlteRTAsE1wkZTeJaKjeGZLFyxhvAmgdVYVYCDnERGgbqt7RyRyJYB6KUWQYXwUaMqlI3K78yOAhL2gQZxERIu5tGzPYdm/UvZ8JB8C6M5wpb6ez5uh6iuWp7m0zJrAkEpxJDnI9wJolCZfYL3rJk77cVa32prKp2mHml7BkEz1yyAfC8CUdEzWyPOW0EmcfgIiOO5htYIpnbIqq4UvBdBPvs1idYlDh7OcnqpV+9CD1wXK36sTquUjdzq1nq8EEJNplTXv18FEQd9zGuLfLhau8SqAc3GMMd452icCYFFnwcWDa257RK286Ai3tavrLyaCDfyF4XPRwXgB/FW+xWb5gotXVwO4PWzNuOhJHre71DnM66yy9AhjBRDH0AT825qm0Q34nc1aM4yB34kBFbUDIyMs8jutQyoKCFQLoIFFfjT0gUvpK2/zew6UcNFAjqcc77101NOZYQrn6l4GCcCUeEDWmMu3FTxPDqspvZvMsYVvKTlttWY1N0IAVzMUU+XUjZVtVcBvdK01Ih3KsQCk2xXdtxQqyxZRI4CmDOn+f/zl8tviS46Dm1+7m+VZAAU2Q8NiGVYrvw3VVQDmmfKV3qem2ahwBs/B/bbWyNM8G/mNSWHORU47/QRww+8Kv0M9uE4Qzqi18geejZQeUpp1xZ4tolAAsQzp/quvsv0XoXy3CZxWa+abXFtZepXivMsDSToIgKXS23EvupDryErX1Zo5k28ztznMBuvKkMLybU+tBZAg30unzLGdxUjOs8QuVV2P4ttMaYGK2ovy9IZaCqD3GobFR0eHf9TsCN9xPVn3beNcAFVj1LyOC+S3hKwCYKn0dnEjlc15XFfX7VULObf0SDOn4Hb4WP6fbeiviQBCHpCPz+mHzE7/bgrnUa3bBBCt4t3UT9RVYFdltfReANdtZvh/XGSldOI+T/gfdbbO491U6R6XPRjkT1nPW0K9E0AbhnR/l3lpIT9yH9Q+dcbezb2t5zur/TZ7ajcpK4Dw1HPy3yfXman8N94ov/xsdOfeWCnPrPpixn27STkBJOxj2G1Eufyng/lvELTpsrXBF/hXwNPurmbzGUiKVCOALl8xiMtNdUrEbv4jutjG3h/4N7dysJvHNPJ5+WyRgxNNSgXQ+GX5E0f3n5cl/AdUetDG3gUA9u6LchftKxjSszYMUCSAoCT5LuoeFpgQbVdsN8kTEAxe4n41N2Kb7L921W7SrQD6/yS/9fNQo976FEA4S23l2wFBANIE71K0C53aTboRQCuGrd+vHrpUBH2LEM31djYfQzD5dFsvizS2j2IQgJkh88hzn5pHIR6neXY2fwZh8xqPp/t9GY5eLufquRNAwh7ZH6nIbObJjj4Y03hvtzP6cQibpVmee/RMYcgWeTLckwBYrpr/r4fnNoF/YMTSPnFqKIbR5f28L9W2aTfpKACWdH/ZbpWvYoTygEOLkwsYZv8hN0qyM0MW7qorXQqApQKp2BIuY8AokFZBWQ52o/Q3zNCiXculj7idAPoynIbZLyFcoTlKz60pDobPBbG76iaGhk3yNzg1y3gbAajZRLjCSpA4SnEOhg9HMfxES21atlW3m6wTgLpjBBe4DyWMR52SrMpQTF/JUgTKlMXR6pIARsvX71a+zpI62vUCShQ/dLJ9NYrp0r0sSbzB98sfxxbVFsYzJESt6c3ULTAPJohTnYyfDWP7ha5MefyNtZvZwzq7Lg0mhpJzR43+OMb/ytgUqLc2rXnKWKdXDq2ECeFOF+/MUzgKeI65g6cGk5Gd0v3doeF+nAi62k0vxzHfej2rArye3LlzDHPl6Ac4AZTGurA/Gcj+fPa5IR29mYx5ZqaZ+T+6Cyh+Fa7KpmKR2p0vU9AFgKGm291GUUETyjaFQOH7zqULUH3j71SggJCUM2r+C0VtaIOgZgU9QpiZ7LYv5/YK2GHq6+J4VKasEfUTSMGTXG+kB0L5sFbZ7CiWAgIbuEv3d/vzZUix2+vmLYY1POZx7Xu71UEm58N5s7EDKnQL3LixGMqL8r4K2/tFvcD4mO5OUNpwMBMqctJIN27cjOXGbsXdYVn6u6oZSDUaa17UaXcnqaFgg4/+q7zF7wjZhL0c5SPpoo9hxW2xW08+wnJEulm5AmRu/tUMpTR9DhY29zk1t4N5cjJGOV0U4z5bRN1Y2ulgUSty/4mLKAbz5WuTCsLczXmRSfd3h+5oQXvfgzOfgvkiTVdDGQUluyggYOss57xwghu8Od6DNxPRnCm5UhVrzgUEB5PU/RC9hBayIk+J7fXPobnzu9ohwl3+Z/MrxWkRKn9mmBUtYu949Oc9NHekF0ktLjeAyemg9jca5cMFzHNu+xg4f6zDVSsgfFnNT4xR/Qvc94J0xnHPye0hx+E8OqR+7qPXgyMnwUVLelnGpQw8l7J9JoCOgDPjr5HxqT+eS9UjRn0igJAf8GK1S/bkZAueU+fifCOApwAfFvlL9EcAvfrZ7AsB9C3Hi5Q1VtatFoBuSU/6QAAcDwR1jy8ZHPsM0K+KQcYLYBFgnKREBsfGIjq2J8JoAYxHDFNBKMva9iCia28bLACeB4J6e2yKuLh17HqmtwC4HgjqFlWd2TImEJeBUmGskQKYCfmQ5DJ6twLTuyDjBNCjBDJE4xndGwnpnTTDMAFwPhDUHY6wHpeYdkL6V9rLKAEsxHxC5jI7eD+mg9vCjRHAyCrMB6Qls4f1T2EqYKEhAuB9IKg7LFbg44uYLlaNMUIA2ZjBkXor8LFdBaaPx1voL4CpoPx/p8jLZaBefqq7ADoVgYZmrKLQDAL10qkHstYCMG8ADcwuhUVP34P6eb6zvgJ4JiCeDMj04FrkmfUUwOBK0LAcVVw/sRFVAU/rKACEgaCuMUvxMeldqK5ar9VPAFmoQTnbUHnK6z5UZ/dF6SWAO1BDwt5c1wbJsN4u0UkArU+hRuR8tAoBmP+EVcAEXQSAMRDUJV5QlfV4L6y/p9vqIYBHpYB6ARCZ98N6vCZYewH0KYMNh9oK6mmwHjPuepQIIGwLbDBKYlQKIDQf1ueyPloL4FUp4F4ARJNxnZYdMapQAKOqYENRFK1aAMHbcBWQoakAmh/FjcQcUo/xuG4zjBhVIICVuIE4GemFAEw/4TrOMGKUWQD34YZBeoi8wQhgz3NMWgkAZyCoM/LDvBIA/Q9YAfdqJADYJJBq3OUd/9StAtd32RGjjAJIA+Z/Y5CXAkCbhWAHuRGjbAIYWgkcgmHe8k/RZ4Hdf04DATTcDxyAFeQ9ZgP7LzNilEkAHwD7Xx6ngQDC/wSOgOcRoywCuBvYe2keaYFbkUOwzEsBxBYCO3+soSYCgN4KetwGyQsAayCoI5K04Z/iSoGD4GnEqLwAkBdA0g8mjQSANxTBFuuC1QsgvgzYcWt/rfinqMPICnhCtQAa7ET2+3XSDonIgagYoFYAbyC7faSxhgJAvg6VpD2R6gQwFtlp6RYt+ae255BjkalKAGgDQe2xnLTFo9BPw20qBAA3ENR+89NaYwGEbEIOh5vkEI8CmA4t+amkNXqXI8fD9YhRTwKAGwhqh9UmzQVA/4F+IqYrFEAo9BuvtJv2/FPoVuiQ9FImgHnQcn+M9MAA5MQIaWuYEgFca0X2dbNZFwFgnwhLLykQQJODyJ5W9NWHf9QeybVwMWLUrQA+hJa6hfRCD+iVsfOIUXcCmATN/89m3QRAD0FHZgWjADogp0Gqn6LIVCkEfTrmNGLUtQAQB4LaIIn0BPb5uOPD4VoAT0Hzv5z0xegq5Og4fB5dCqAv9JHnwSY6C4Beh34+npQVAHYSiEwevBYI+x16izxITgCLoAX+LOmPPsh5ctLeSM8CuAWa/7x6BgiAZkHHaJFHAbQuQPZN1x2gzV5wBbQCbvcgAMyBoHX4GxmDyD+Qo2QzYtRJADOh+Z9HRqFrEXKcLo8YdRQA6EDQWqw3GyYAmgD9pMxwIwDsy66jrchAzEcOVelVrgWQjuxU+RAj+aeQ1cjBujRi1F4AI6EPOe8jY9ECOmVioQsBoA4ErcF7ZDQGIpcM144YtRNANjL/m+obLgDkXuKXRozaCmAqsjuFHckHgD41/8RBAHHngZ2pvNEX/JM5F1kBU+wEEPITsi8Pkm8QtQU4aOe72ArgWWT+3yRfoT1yflCe+bIABiOXPHwd4jMBUDzyl/OZOgHgDgStHo3RiHyIccAVNJVDLgkgC5j/ox3Ip0BOFN/3Ys2fycA+XBhAPgbyAXqx3R+IKL/R1/xT0CeSgM9ONCeT79HgF0GErzCHeECzrYIJ3+Bl4gPROwQXvsBiEycCoNg/BRvGY1kwcYMrjgg+jManIcQRehYIRoxFbhhxhd6FghMjsT6COMOgc4IV4/BbI+IOw0sEL0ZhS1PiEDeXCWaMwY4WxCVGFwtujMC2VsQphhUJdvRHXjPiFv3EblB3rIkijtHnhGBIX6yKIK7R9ZDgSE/khBHnaL9HsKQflpqJe8SI22Hd8EYQAaDFJsGUPsgwEQSarBFc6YCqOYSC0HcFXZqjIplwYLIIwjTG+TEEhcnlgjMtcTSewPCXs4I17bCtA8Gh537Bm1b4phEBIiZPMKfR9t9MkGiwUnCnASpTCRXB8wR9XuPUjQSMsWIp6CV+60jQ6LJNcOgN3qtP4IhcLlhUf/qXSvgwpVYKJtXh8DXkF7juuOBSDdbEkJ8gdoNgUzkyzeQ3CF8s+FSIcxPIr5AoagcV4ZfO5Gdo+71glRlV6fXI7xCUIkrHGHHgWvJL9NsluGXBsibkp6ifLtiVRVEy+TFuFbVjMthwBfk1YlcJjj2gcm4I+TlMyeKC0C0296cAQMwKwbRLlFjqUWAgQVSQusDarhQwaJRZJQi3x5mUIAokDNspOLdFThsKMISnVQjaL+HobRSAiP9VMH8R1tcbUkAiKElkilRf/A2kgEXj9IBPFysIsMWfI3oHdi+B8nlRFOhI2B24/Of2IAEyJwdob7m8awX5NWiyoDTw6M+/2ySYv3xJmB5gEihIDROs26FdZgAdDJ1LaygYd0KXD6yBQf+FF5sKtl2ie1YASOBCeivBtFv0zPbza8Lz6TGCZY8YsNKPJXDmueaCYVlc4a87guOWxoJdJrS0nPE/+vemhAtm2Y+GHjvoX/SvHhckWFWE4IR1fsN+WfZAQagKDFrqF9WER+a2FFyqROOUvej0r0s0Cx69QNDolcA5IwUvxQkKvUZMyhZI9q25SfUFe9ogPhNuJOVOS3vBm4ZocNfnQBMIjmdcIy77tV8RJuVCnBIXZyeIdZ9OaDtzPef3hUUfjBcHfrqiWVIOt9+C01mJDQRD+qP55OUcrgn3LBwp3vyGod7IhTyNqK1YPaubIMVodEzO5qL75N7MRHHN6yMED3pydbFPz/k/nCq2+z5GSHxqzmmfkJ+dEi92+5yIoO/9WUZ2oSz9YcEdbUXYOUPTMZbPDujOffmmxQ8OqCeiza0KRsx6/zedcgoLVmdMiQ8VMQZYG8aNe/z9n7XbIljzv31t2vXRIrBob4P+dz65ZNWuEvXMn9qckzHj5m7iqcdGi75jpz316sdrd7C9E0qPbsl9b37qpFHdxbmu36FR+97XjZuYPD316bTXMzMz38zOzl6amZmZmZ72r9R/Tkkcc033VgGWxPH/sFfGtrShOnAAAAAASUVORK5CYII=;" vertex="1" parent="1">
                    <mxGeometry x="421.5" y="-8" width="52" height="52" as="geometry"/>
                </mxCell>
                <mxCell id="25" value="" style="shape=flexArrow;endArrow=none;html=1;fontSize=18;" edge="1" parent="1" target="22">
                    <mxGeometry width="50" height="50" relative="1" as="geometry">
                        <mxPoint x="542.5" y="20" as="sourcePoint"/>
                        <mxPoint x="362.5" y="20" as="targetPoint"/>
                    </mxGeometry>
                </mxCell>
                <mxCell id="26" value="Cooling off" style="text;html=1;strokeColor=default;fillColor=none;align=center;verticalAlign=middle;whiteSpace=wrap;rounded=0;fontSize=32;" vertex="1" parent="1">
                    <mxGeometry x="372.5" y="-200" width="450" height="40" as="geometry"/>
                </mxCell>
                <mxCell id="28" value="" style="group" vertex="1" connectable="0" parent="1">
                    <mxGeometry x="262.5" y="-70" width="100" height="130" as="geometry"/>
                </mxCell>
                <mxCell id="29" value="" style="shape=actor;whiteSpace=wrap;html=1;fontSize=18;fillColor=#f8cecc;strokeColor=#b85450;" vertex="1" parent="28">
                    <mxGeometry y="-20" width="100" height="102.14285714285714" as="geometry"/>
                </mxCell>
                <mxCell id="30" value="buyer" style="text;html=1;strokeColor=none;fillColor=none;align=center;verticalAlign=middle;whiteSpace=wrap;rounded=0;fontSize=18;" vertex="1" parent="28">
                    <mxGeometry x="12.5" y="102.14285714285714" width="75" height="27.857142857142854" as="geometry"/>
                </mxCell>
                <mxCell id="31" value="" style="rounded=1;whiteSpace=wrap;html=1;" vertex="1" parent="1">
                    <mxGeometry x="482.5" y="-630" width="500" height="290" as="geometry"/>
                </mxCell>
                <mxCell id="32" value="Block Chain" style="text;html=1;strokeColor=none;fillColor=none;align=center;verticalAlign=middle;whiteSpace=wrap;rounded=0;fontSize=24;" vertex="1" parent="1">
                    <mxGeometry x="607.5" y="-670" width="230" height="30" as="geometry"/>
                </mxCell>
                <mxCell id="33" value="" style="rounded=0;whiteSpace=wrap;html=1;fontSize=24;" vertex="1" parent="1">
                    <mxGeometry x="547.5" y="-571" width="125" height="190" as="geometry"/>
                </mxCell>
                <mxCell id="34" value="Smart Contract" style="text;html=1;strokeColor=none;fillColor=none;align=center;verticalAlign=middle;whiteSpace=wrap;rounded=0;fontSize=18;" vertex="1" parent="1">
                    <mxGeometry x="527.5" y="-600" width="160" height="20" as="geometry"/>
                </mxCell>
                <mxCell id="35" value="" style="shape=cylinder3;whiteSpace=wrap;html=1;boundedLbl=1;backgroundOutline=1;size=15;fontSize=18;" vertex="1" parent="1">
                    <mxGeometry x="762.5" y="-570" width="180" height="190" as="geometry"/>
                </mxCell>
                <mxCell id="36" value="Strage" style="text;html=1;strokeColor=none;fillColor=none;align=center;verticalAlign=middle;whiteSpace=wrap;rounded=0;fontSize=18;" vertex="1" parent="1">
                    <mxGeometry x="772.5" y="-600" width="160" height="20" as="geometry"/>
                </mxCell>
                <mxCell id="37" value="・previous owner" style="text;html=1;strokeColor=none;fillColor=none;align=left;verticalAlign=middle;whiteSpace=wrap;rounded=0;fontSize=18;" vertex="1" parent="1">
                    <mxGeometry x="772.5" y="-530" width="160" height="30" as="geometry"/>
                </mxCell>
                <mxCell id="38" value="・previous trades&lt;br&gt;&amp;nbsp; &amp;nbsp;- timestamp&lt;br&gt;&amp;nbsp; &amp;nbsp;- payment" style="text;html=1;strokeColor=none;fillColor=none;align=left;verticalAlign=middle;whiteSpace=wrap;rounded=0;fontSize=18;" vertex="1" parent="1">
                    <mxGeometry x="772.5" y="-484" width="160" height="76" as="geometry"/>
                </mxCell>
                <mxCell id="39" value="・previous trade" style="text;html=1;strokeColor=none;fillColor=none;align=left;verticalAlign=middle;whiteSpace=wrap;rounded=0;fontSize=18;" vertex="1" parent="1">
                    <mxGeometry x="772.5" y="-506" width="160" height="30" as="geometry"/>
                </mxCell>
                <mxCell id="40" value="" style="shape=flexArrow;endArrow=classic;html=1;fontSize=18;entryX=0.008;entryY=0.154;entryDx=0;entryDy=0;entryPerimeter=0;" edge="1" parent="1" target="33">
                    <mxGeometry width="50" height="50" relative="1" as="geometry">
                        <mxPoint x="362.5" y="-542" as="sourcePoint"/>
                        <mxPoint x="362.5" y="-630" as="targetPoint"/>
                    </mxGeometry>
                </mxCell>
                <mxCell id="41" value="" style="shape=flexArrow;endArrow=classic;startArrow=classic;html=1;fontSize=18;" edge="1" parent="1">
                    <mxGeometry width="100" height="100" relative="1" as="geometry">
                        <mxPoint x="672.5" y="-476" as="sourcePoint"/>
                        <mxPoint x="763.5" y="-476" as="targetPoint"/>
                    </mxGeometry>
                </mxCell>
                <mxCell id="43" value="Purchase" style="text;html=1;strokeColor=none;fillColor=none;align=center;verticalAlign=middle;whiteSpace=wrap;rounded=0;fontSize=18;" vertex="1" parent="1">
                    <mxGeometry x="392.5" y="-594" width="110" height="30" as="geometry"/>
                </mxCell>
                <mxCell id="44" value="Set price" style="text;html=1;strokeColor=none;fillColor=none;align=center;verticalAlign=middle;whiteSpace=wrap;rounded=0;fontSize=18;" vertex="1" parent="1">
                    <mxGeometry x="382.5" y="-396" width="110" height="30" as="geometry"/>
                </mxCell>
                <mxCell id="45" value="" style="group" vertex="1" connectable="0" parent="1">
                    <mxGeometry x="266.5" y="-446" width="100" height="130" as="geometry"/>
                </mxCell>
                <mxCell id="46" value="" style="shape=actor;whiteSpace=wrap;html=1;fontSize=18;fillColor=#dae8fc;strokeColor=#6c8ebf;" vertex="1" parent="45">
                    <mxGeometry width="100" height="102.14285714285714" as="geometry"/>
                </mxCell>
                <mxCell id="47" value="Seller" style="text;html=1;strokeColor=none;fillColor=none;align=center;verticalAlign=middle;whiteSpace=wrap;rounded=0;fontSize=18;" vertex="1" parent="45">
                    <mxGeometry x="12.5" y="102.14285714285714" width="75" height="27.857142857142854" as="geometry"/>
                </mxCell>
                <mxCell id="48" value="" style="shape=image;verticalLabelPosition=bottom;labelBackgroundColor=#ffffff;verticalAlign=top;aspect=fixed;imageAspect=0;image=data:image/png,iVBORw0KGgoAAAANSUhEUgAAAgAAAAIACAMAAADDpiTIAAADAFBMVEUAAAAAAAAAAAAAAAA/AAAzMzMqKiokJCQfHx8cHBwZGRkuFxcqFSonJyckJCQiIiIfHx8eHh4cHBwoGhomGSYkJCQiIiIhISEfHx8eHh4nHR0lHBwkGyQjIyMiIiIgICAfHx8mHh4lHh4kHR0jHCMiGyIhISEgICAfHx8lHx8kHh4jHR0iHCIiHCIhISEgICAlHx8kHx8jHh4jHh4iHSIhHCEhISElICAkHx8jHx8jHh4iHh4iHSIhHSElICAkICAjHx8jHx8iHh4iHh4hHiEhHSEkICAjICAjHx8iHx8iHx8iHh4hHiEkHSEjHSAjICAjHx8iHx8iHx8hHh4kHiEkHiEjHSAjICAiHx8iHx8iHx8hHh4kHiEjHiAjHSAiICAiHx8iHx8hHx8kHh4jHiEjHiAjHiAiICAiHx8iHx8kHx8jHh4jHiEjHiAiHiAiHSAiHx8kHx8jHx8jHx8jHiAiHiAiHiAiHiAiHx8jHx8jHx8jHx8iHiAiHiAiHiAiHiAjHx8jHx8jHx8jHx8iHiAiHiAiHiAjHiAjHx8jHx8jHx8iHx8iHiAiHiAiHiAjHiAjHx8jHx8iHx8iHx8iHyAiHiAjHiAjHiAjHh8jHx8iHx8iHx8iHyAjHiAjHiAjHiAjHh8iHx8iHx8iHx8jHyAjHiAjHiAjHiAiHh8iHx8iHx8iHx8jHyAjHiAjHiAiHiAiHh8iHx8iHx8jHx8jHyAjHiAjHiAiHiAiHh8iHh8jHx8jHx8jHyAjHyAiHiAiHiAiHh8iHh8jHx8jHx8jHyAiHyAiHiAiHiAiHh8jHh8jHx8jHx8jHyAiHyAiHiAiHiAjHh8jHh8jHx8jHx8iHyAiHyAiHiAjHiAjHh8jHh8jHh8iHx8iHyAiHyAiHyAjHiAjHh8jHh8iHh8iHx8iHyAiHyAjHyAjHiAjHh8jHh8iHh8iHx8iHyAjHyAjHyAjHiAjHh8iHh8iHh8iHx8iHyAjHyAjHyAjHiAiHh8iHh8iHh8iHx8jHyAjHyAjHyAjHyC1acVFAAAA/3RSTlMAAQIDBAUGBwgJCgsMDQ4PEBESExQVFhcYGRobHB0eHyAhIiMkJSYnKCkqKywtLi8wMTIzNDU2Nzg5Ojs8PT4/QEFCQ0RFRkdISUpLTE1OT1BRUlNUVVZXWFlaW1xdXl9gYWJjZGVmZ2hpamtsbW5vcHFyc3R1dnd4eXp7fH1+f4CBgoOEhYaHiImKi4yNjo+QkZKTlJWWl5iZmpucnZ6foKGio6SlpqeoqaqrrK2ur7CxsrO0tba3uLm6u7y9vr/AwcLDxMXGx8jJysvMzc7P0NHS09TV1tfY2drb3N3e3+Dh4uPk5ebn6Onq6+zt7u/w8fLz9PX29/j5+vv8/f7rCNk1AAAjP0lEQVR42u1dd3wVZdY+N8klCSShBwKEaugiGKoUC7AIawTFKKibhRWyimIExagselF3jYUSjbqxgMSCBrAQddV8IlJUNCIgSEdCLyFAgPSb+X4hIdw+78ydmfs+977PP/wDl3PO88zMW04hChSEtul344R7H0vL/Ojz3A2/7s0vLCwstEqSJJUUFhYW7N2Rtzb343dfeebhe8Zf3zPaRAL+AVNM/1tT5n20ZvtpSQkqj2z+6p25U0f3iBIhBIW58+jp6V/sLJO8xOm8D5+dPLSlCCgQ9R0TUrPySiRNcSYvKzWho/gycI6I+KT0dRpTb4uz69KT4uuJOHP53Pd74N2dVskAXPhhwYT2IuA8IXr8/PUlkqE49tnjQ0JF5DlAy8T0vCrJJyjPS0sQuwRfImpsxk7JtyhbPbt/sGDCBwgaaFlXIXGBU8uSYwUhhqJ+QuZhiStsSxsRIngxBq0f+KZM4hDHF40NE+zojXYp66wStyjOSRKrQh3R/omNEu8o/nRifcGUHmiSlFslQaA4O8Es+NIWYRO/qJCAcCKjvyBNO8Snn5TgsD21hWBOCzR/eKuEifLPxoqtodcPf2axBIwjaW0Fh+oRmbxJQoc1N0FkEahD3MtFkl9g5/0Rgk3FGJJdKfkNzqaLBAJFCL3nd8m/ULlskKCVFREpByU/xDqxGGDb9llOSX6KLUliWyiHNhklkh9jX7JIKfWE2HS/pr8a+Sniztgd2vo//dU4ICTgEs3SAoL+ixJIFmsBp5V/6lkpgLA9UewIbBE+q0AKMPw8QtB+CabEfVIAIreXoP4iBq6XAhPWLFF0TBT3sRS4KJodHuD017eUSgGNg0kBzX9CvhTwWNUjYOnv+o2gvzpzLD0wawnCLeWC/BocDcTvwLAdgvjL+CLQEkYaZVYJ1m1RbAmoa8LEo4JyR2yKDxj6Y5YLul2gIi0wbglNSacE2a6xe1gA8N95rSDaLSpf8vuXQNI5QbMnbOvt34v/pYJiGZSkBvkv/8MPCYIZrolb+Sn9ZotVsMuCEzf7Jf/dNgpqWZHVwP82f8kXBK/s2H61n/Ef/YUgVRHKZvlV1mj8fkGpUnze2H/4Ty4TfKo4F7zST+gPe0uQqe6GcJJf8B+7QVCpFpl+0G/wuuOCR/VYG4O++0utFCx6g8PXQPMfKW7+vUVFKjD/cSLvTwMsgk0WG3RCsKcF1jXD5P+2YsGdRicCcYj8p4i7P81wcjAc/SGvCdo0RMntYPxHiMsfbVFlgeK/lbj71/5UEKivUK8Dgi/t8VUkCv+jROavLvgFZDt4U4ngSh9sb43A/wRR9a0b/uzEP/9TxfZfRxzozDv/0wT/uuIY573lUgVFOqNwAM/8WwRBuuPcDfxmfywQ9BiAC3/hlP8gkfxpDEr5LB0zZQpqDEL5TTwK4EVBjGEoG8Uf//8WtBi5DhjKG/+zBSmG4gxnPcWmC0oMxkmuWgxPEm0fjT8T7MJR+qeo/vABDnDTXnasuP/zCXZzUjc2qlRw4RtsacID/31E/o/PsJaDvpKtDgoefIePfN5IJmoLcPhq164VwC7828f8m78GDl5pVs2f85HfAff5VgDQ9T9z59T8GYNcxFzu08vhJ5D5z29QK4CmI5HdKLrKd/wnQicAjqNLAqAVyH4cauMr/odAFwB8Q5cFEHse2ZONEb7hvxN0/4eyLjYCwP6WSV/6pGwwCrv/SxrZCiB0J7Qz83yRAYbd/+lghJ0ACHodKEl/ExkgCnEH2QuAsPV8vqfR/A/HvgFeY3IUQCz2lcauRsby3+4kdLgqavow2wqAHsd+pa00dNRQWB52tGoXTXYCqLcd26fZRgrgbexYHWvoQgA0Atsp62gDS4CxQ1W3ZrYXAGVje1XY0Sj+B4KnAK0zuRZAG/DUlk31jeE/Gnz6X2XdcE4HAcAXty825gQoBzxMr5A7AdT7A9y1O0UNiDwKmroVAA0H9+2MAZni3dFbQN9D7gVAH4E7ty5Yb/5DN4GHKC/IkwDQ14HSv/QWwHzwAFltW+w4C4AeBfevYpC+/I9ELwLMJM8CCNkC7uDeKD35b4zeBLiwuYwAaBi6xBfpKQDwszLHJGpXAqCl6D5O0I//ZPTYbAyWF0DLs+BOnm6rF/+dz4OHpsphCJ9LAdAj6DJfpdPNcNAa9Mg4HpW6FgD8OlCapo8A7kOPy9kYJgHQUPR14NlYXcqAT6MLIIXYBEAfoHv6hR4C+AQ9KlvNrAJoeQbd1zu05/929JhI1xOrAOhhdF9Paj5dpuFh9Jh8QOwCCNmM7q3mx0GL0CNyrrUCAdAQ+L53I7Xl/zr4gDxKSgRA76H7+2cDLfkP340ej12hygTQAn4d+IKWAsDvBH4jKRMAzUT3uLKvdvz3qkCPxnJSKgD888A87U6Ev0OPRXF7xQLwg3Vgslb83wn/AXCTKOVRAPQuutenNDoMiDiEHok9YWoE0AL+7PtVbQTwPPwL4K+kRgD0EPw6sLcW/MeVocchh9QJAP88cI0WAvgUPQqlnVUKgAbDrwPHe8//tfAfgLmkVgCUhe773lCvKwF/QY/BgQbqBYC/DpzhrQD+Bv8CuIXUC4BS0L0vbOrlJUA+egS+Jm8EEIJeCSct8E4A6JVSUllXrwSAvw4s6+BVGkgBugCeI+8EQO+gR+ANbwTwLLr3hyK8FUA0+jqwvJN6/psXoQvAc3IkiwDwh6K+o14Ar8CfhJm8F0DwRvAgVHZVy3879EPgCpn5ukwCoGvQ14EfqBXAf9FfAPNJCwHQYvAwWHup4z8WfSLopYag3goguhA8EMvVCeA19BeAbBN9RgHQA+CBqOqnhv826C+A9SatBBD0M3goctQIIAN98SufDcEqABqEvg4coJz/Fuj9ADNIOwGgt0eXVioXwHPgLhc01VIATcHPxKsUj5SJQj8BnUJaCgC+Q/6SQLsGZKqKUCCAoA3Y8Shvp4z/UPBqcCvTqkeBAKivFTsiC5UJ4B7wF8CbpLUA6C3siJxvokgA4AnR9g1BtRFAU+xBadLjSvgHn6PJ2idNkQDQu6QdNisQwOfYvm4M1kMA6OvAiQqKgbAXPFXDSA8BoK8DfwmYRBDmFBiFAqA3sOPCPEogCjsT7ExLvQTQDPs8cCmrn+CnXg+RXgKgf0IHpqwFo5vYzVG2mfUTQNBP0KF5jM3LodgvgOtJPwFQPPQ6MJ9td4TdKllJBqRyAVAmdHCY5ks3g84EutBWXwE0gT4P/IzFReyBGY+SvgLAHptTGevvS8BdoXoLIOhHP18G9vf/j5xXAqD4SuD47JRNlKXXkflXmACvSgDYERos510YchFEcXsjBND4BHCI3pLzbiKyvOeQEQKgKcAhKpLrIv8lsHPuGoJqLQDodeBdMh0ByoF9u4mMEQBdDbwO/Nyza/cD8/8VGSUA5LLJimiPnq3H9cx9Q1DtBYC8DrzPY0sI4Bq4p8k4ASBnTXvsH/w4rl/76xspANMPsIGq8nRb8huuAG4lIwVAfXDXgTPde9UBl/9cMlYAwNXz6907NQvWqbKuRgug8XHYb4D7K0HchKc0MloA9A/YYD3gzqXWsHuAo1HGC8D0PWq0vnPnEm4vpAlkvACoN+o6sNLdWVAuKv9rTb4QAG79zGQ39SCojUErVDZC9FYAUUdAA+YmbeI2VEHPJ98IgCaBBuyc68Q51M74xxr5SgCm1aAhG+nylvsYqDdJ5CsBUE/Qqdou+8UMRD3YMvlOAJSOGbM9rnyxYPpi7Uc+FADqOrCT/6QCZJAvBUB/x4yai6SASMxksFNNfSsA0HXgx86ejMOU8hTyrQCoJ+SDczrEyZFXIflnagiqqwBoIWTgnNvF7IRcAfYnnwug4VHEyD3p6EYMpI7fJN8LAHO8stON4J2IXjA2BNVZAKbvAENX4lhEAzkh7H7iQQDUA3EdOMTBiT8AfdgSwocAaAFg8GY7lIQBJgMxNwTVXQCRgM31v8a/Cl5CvAiA7saL3jn7bnrz8Tw425IfASCeB/a18wCw0GUG8SMAxHWg3QrajDcjbpuZJwHQPLgAZtmaD9gZ6nriSgCRh9ACuMvW/Olw/C8lvgSAd5JW1czG+vfQrL/QjjcB0LdoMRyDfBOUStwJAG4daLFJbELrga2sIagxAqCXwIJo0zgYrkH8aOJQAGjrwAOXTX8QjP8VxKMA4HosXl4FLsYyvLgDnwJAWweOqDMcrDPMHG3oCrtnV+2Wsq9GAuiOtQ6cdcnuelh2K24I6hItn7Zp8bH2tmBNFPACVCDfr0tsxXoB3KQBU70zHQ6/D1uaaPCzEVDrwE2XzL4Div+vvKYpKMFVJ4Rzmd28VwBUKEuCEYvCyjp7u1tL3uHmp625CSZvFfA/pFjG1Rq9DMnoZ7wjqGOax4EIO1Lqe/f7cUgjt8bWGr0N6fSigTf0DMmW7etzIq2NVwp4HiiYT9QmAyBtAsarpyZ0ksN298fa9/XL9qPgyrKu9mYdeBAnmO/VmNwZiP9c1cREp9qv0K05g+sOgkKTfrf/b/KS1Ccc344TzZ9rLB4DtALsqpKVqxy2fWfS29qfBDp+HPalNvb/dWAh3E3A8+q2fSNy7LPed6c0cD4KviL9vN1fKsrs6vfrwJqzD5w2J6oagkYmb7f/lXV1mz2Hu4ColP2abAufgwloTW3tFzD2TlRORgeHbV9pVk8Pl0FOR0SbksOV/5/1/0QJ6J1Y6UDKG4LGZ9m38TpqaSZ3GxifZb8pOp7WWrECYMpsLhaJB6E0CK3oqYyGekkb7X9gw0Qzy3Vwm+dO2b80FvdWqoCvQUL6DlRngAWKOGieetBh2zeCOR8gNGmrw7IhMdgv14GrkGoCFDUE7ZJuv+07m95OWULIEIeNw15l28L/YMR0N9IH6+/eb/sUZQTFOW0Lu/jdOrC0elU1A4N/5oagEcl/sL6/ZVLCGqbky35F3GE8RlSjYQqDWRuCtrI4rOCyrvQiJzA4YZ29Gb8xbwsxNtfxRPQRhKWvsd32Lbc/0D08u5m3SaGDPnLYSc6J9qN14DgiWotg6KlmDNu+RIci943JYVpkBcdYChxeKkwDKp5FiOt9KOdAU2Xj3SjlgOIPNmtaeFjSNuXbwvB9AHF9iojOANgp2xC0c/oFh21fe03rAkyOG4s9qbK70lswvqxhCCvAgZqzo7wwRLnGANaBK4jaAgjgTc/bPhXvZ1WVQQ0VfmWuKOE+smuJ+vHPv6eGoDFO2z4FI8QUl4aZla0zn+E+tLuIRvMvAPcNQa/JdtyjKWoeq6Y2cMgy9p1mOPfngYUIrU1+D3H3OK5Xe0rjVXGogrMm7ocwWINoGu82Vl2ryQdZy+pg9tPmz3mPbkN6gncTl7i+qbFfkiu6qdGgPJz1vqkT7+vA9twXMhS1kt/27VWZwutVfwDnbaGrG+e5nIe3N2VybuEM52M5L7M1NGsQwZJzEr6X7/BeRx/ybeBWhyyuWMckT+X5WpoJoDrr7Fd7c52yzuhmvuM7jvdlyg2kdcamlgKQzzslyuE6vndy3tfmQ7uyfofLeVU521oLQCbznPd14BT6kWfzbBqCOqXnaFDMr1WTqAj3tSe8t194kDbzbN5jdcfqWtVt6SIAz9tCrteBqbSLY+t2h7pO0fWiclMnAbitP63GjRyH2EI8tzUaXZOkr2Htto4CcF2BfhEr+Q3xC3SSX+M+vlimY5+PVbbkatIMWjeKdNGD4o5qsXbkdx7Hy3SaW9uKO9DVDts+b/u36C2Ai40G7LeFRyxNiZ7iNsivUhG/nyfHUl2vOzgZIQDnPlQlWT1CuU28zKTz3ArguP0HdeVw0hr6CIAo6iH7hX/Vl9yOGH+bMGqDNeniaJgA3PWi5BDvUCWAldr0cTVSAK660XKJd4n/mbFadXI2WABELece5z64S3kXQHn2ININOgug+rZwM+cCeJ8qeDbvTHosEbAA2JqT+hJZxPFd1U6tt32+EED1tpDfsxZpEbfbwCoNbvv4EABRZAq3+eFvcloaWPJqZ9IfRgmAKHj8Oj4F8F8q5PP5z471KwFQ/Ho+BZBBvO5Uzj5Sz38E0HIxr5uthbSf2/XJrr/6iQDMKfyW4P+HtnO8R8nt5g8CGL6V4xDPoV+5PgZKj0QXQKdsrg+CHqF1XNsnHU4yIQugvoXz2rBp9A3vp9U/D8AVQEI+79GdTJ9yf19hzYrGFEAfgAZsd9C7/BspnU4JwRNAk3SEm/Yx9IqEgB2jwAQQknwSIrCDAPrY1CCnA5IArt8CEtZu9DCIpVJxWgSKANpkoQRViqF7YGyVDiZBCCDcUowT0zCUvuY1+O5K/gWQ8CdQQEuJbkASgFSR3ohvAfT6DiqeR4l6Slg4lRLMrwAap1dgRXMzUXMJDRuHcCqAoKQTaLH8hiioAk4BVdlteRTAsE1wkZTeJaKjeGZLFyxhvAmgdVYVYCDnERGgbqt7RyRyJYB6KUWQYXwUaMqlI3K78yOAhL2gQZxERIu5tGzPYdm/UvZ8JB8C6M5wpb6ez5uh6iuWp7m0zJrAkEpxJDnI9wJolCZfYL3rJk77cVa32prKp2mHml7BkEz1yyAfC8CUdEzWyPOW0EmcfgIiOO5htYIpnbIqq4UvBdBPvs1idYlDh7OcnqpV+9CD1wXK36sTquUjdzq1nq8EEJNplTXv18FEQd9zGuLfLhau8SqAc3GMMd452icCYFFnwcWDa257RK286Ai3tavrLyaCDfyF4XPRwXgB/FW+xWb5gotXVwO4PWzNuOhJHre71DnM66yy9AhjBRDH0AT825qm0Q34nc1aM4yB34kBFbUDIyMs8jutQyoKCFQLoIFFfjT0gUvpK2/zew6UcNFAjqcc77101NOZYQrn6l4GCcCUeEDWmMu3FTxPDqspvZvMsYVvKTlttWY1N0IAVzMUU+XUjZVtVcBvdK01Ih3KsQCk2xXdtxQqyxZRI4CmDOn+f/zl8tviS46Dm1+7m+VZAAU2Q8NiGVYrvw3VVQDmmfKV3qem2ahwBs/B/bbWyNM8G/mNSWHORU47/QRww+8Kv0M9uE4Qzqi18geejZQeUpp1xZ4tolAAsQzp/quvsv0XoXy3CZxWa+abXFtZepXivMsDSToIgKXS23EvupDryErX1Zo5k28ztznMBuvKkMLybU+tBZAg30unzLGdxUjOs8QuVV2P4ttMaYGK2ovy9IZaCqD3GobFR0eHf9TsCN9xPVn3beNcAFVj1LyOC+S3hKwCYKn0dnEjlc15XFfX7VULObf0SDOn4Hb4WP6fbeiviQBCHpCPz+mHzE7/bgrnUa3bBBCt4t3UT9RVYFdltfReANdtZvh/XGSldOI+T/gfdbbO491U6R6XPRjkT1nPW0K9E0AbhnR/l3lpIT9yH9Q+dcbezb2t5zur/TZ7ajcpK4Dw1HPy3yfXman8N94ov/xsdOfeWCnPrPpixn27STkBJOxj2G1Eufyng/lvELTpsrXBF/hXwNPurmbzGUiKVCOALl8xiMtNdUrEbv4jutjG3h/4N7dysJvHNPJ5+WyRgxNNSgXQ+GX5E0f3n5cl/AdUetDG3gUA9u6LchftKxjSszYMUCSAoCT5LuoeFpgQbVdsN8kTEAxe4n41N2Kb7L921W7SrQD6/yS/9fNQo976FEA4S23l2wFBANIE71K0C53aTboRQCuGrd+vHrpUBH2LEM31djYfQzD5dFsvizS2j2IQgJkh88hzn5pHIR6neXY2fwZh8xqPp/t9GY5eLufquRNAwh7ZH6nIbObJjj4Y03hvtzP6cQibpVmee/RMYcgWeTLckwBYrpr/r4fnNoF/YMTSPnFqKIbR5f28L9W2aTfpKACWdH/ZbpWvYoTygEOLkwsYZv8hN0qyM0MW7qorXQqApQKp2BIuY8AokFZBWQ52o/Q3zNCiXculj7idAPoynIbZLyFcoTlKz60pDobPBbG76iaGhk3yNzg1y3gbAajZRLjCSpA4SnEOhg9HMfxES21atlW3m6wTgLpjBBe4DyWMR52SrMpQTF/JUgTKlMXR6pIARsvX71a+zpI62vUCShQ/dLJ9NYrp0r0sSbzB98sfxxbVFsYzJESt6c3ULTAPJohTnYyfDWP7ha5MefyNtZvZwzq7Lg0mhpJzR43+OMb/ytgUqLc2rXnKWKdXDq2ECeFOF+/MUzgKeI65g6cGk5Gd0v3doeF+nAi62k0vxzHfej2rArye3LlzDHPl6Ac4AZTGurA/Gcj+fPa5IR29mYx5ZqaZ+T+6Cyh+Fa7KpmKR2p0vU9AFgKGm291GUUETyjaFQOH7zqULUH3j71SggJCUM2r+C0VtaIOgZgU9QpiZ7LYv5/YK2GHq6+J4VKasEfUTSMGTXG+kB0L5sFbZ7CiWAgIbuEv3d/vzZUix2+vmLYY1POZx7Xu71UEm58N5s7EDKnQL3LixGMqL8r4K2/tFvcD4mO5OUNpwMBMqctJIN27cjOXGbsXdYVn6u6oZSDUaa17UaXcnqaFgg4/+q7zF7wjZhL0c5SPpoo9hxW2xW08+wnJEulm5AmRu/tUMpTR9DhY29zk1t4N5cjJGOV0U4z5bRN1Y2ulgUSty/4mLKAbz5WuTCsLczXmRSfd3h+5oQXvfgzOfgvkiTVdDGQUluyggYOss57xwghu8Od6DNxPRnCm5UhVrzgUEB5PU/RC9hBayIk+J7fXPobnzu9ohwl3+Z/MrxWkRKn9mmBUtYu949Oc9NHekF0ktLjeAyemg9jca5cMFzHNu+xg4f6zDVSsgfFnNT4xR/Qvc94J0xnHPye0hx+E8OqR+7qPXgyMnwUVLelnGpQw8l7J9JoCOgDPjr5HxqT+eS9UjRn0igJAf8GK1S/bkZAueU+fifCOApwAfFvlL9EcAvfrZ7AsB9C3Hi5Q1VtatFoBuSU/6QAAcDwR1jy8ZHPsM0K+KQcYLYBFgnKREBsfGIjq2J8JoAYxHDFNBKMva9iCia28bLACeB4J6e2yKuLh17HqmtwC4HgjqFlWd2TImEJeBUmGskQKYCfmQ5DJ6twLTuyDjBNCjBDJE4xndGwnpnTTDMAFwPhDUHY6wHpeYdkL6V9rLKAEsxHxC5jI7eD+mg9vCjRHAyCrMB6Qls4f1T2EqYKEhAuB9IKg7LFbg44uYLlaNMUIA2ZjBkXor8LFdBaaPx1voL4CpoPx/p8jLZaBefqq7ADoVgYZmrKLQDAL10qkHstYCMG8ADcwuhUVP34P6eb6zvgJ4JiCeDMj04FrkmfUUwOBK0LAcVVw/sRFVAU/rKACEgaCuMUvxMeldqK5ar9VPAFmoQTnbUHnK6z5UZ/dF6SWAO1BDwt5c1wbJsN4u0UkArU+hRuR8tAoBmP+EVcAEXQSAMRDUJV5QlfV4L6y/p9vqIYBHpYB6ARCZ98N6vCZYewH0KYMNh9oK6mmwHjPuepQIIGwLbDBKYlQKIDQf1ueyPloL4FUp4F4ARJNxnZYdMapQAKOqYENRFK1aAMHbcBWQoakAmh/FjcQcUo/xuG4zjBhVIICVuIE4GemFAEw/4TrOMGKUWQD34YZBeoi8wQhgz3NMWgkAZyCoM/LDvBIA/Q9YAfdqJADYJJBq3OUd/9StAtd32RGjjAJIA+Z/Y5CXAkCbhWAHuRGjbAIYWgkcgmHe8k/RZ4Hdf04DATTcDxyAFeQ9ZgP7LzNilEkAHwD7Xx6ngQDC/wSOgOcRoywCuBvYe2keaYFbkUOwzEsBxBYCO3+soSYCgN4KetwGyQsAayCoI5K04Z/iSoGD4GnEqLwAkBdA0g8mjQSANxTBFuuC1QsgvgzYcWt/rfinqMPICnhCtQAa7ET2+3XSDonIgagYoFYAbyC7faSxhgJAvg6VpD2R6gQwFtlp6RYt+ae255BjkalKAGgDQe2xnLTFo9BPw20qBAA3ENR+89NaYwGEbEIOh5vkEI8CmA4t+amkNXqXI8fD9YhRTwKAGwhqh9UmzQVA/4F+IqYrFEAo9BuvtJv2/FPoVuiQ9FImgHnQcn+M9MAA5MQIaWuYEgFca0X2dbNZFwFgnwhLLykQQJODyJ5W9NWHf9QeybVwMWLUrQA+hJa6hfRCD+iVsfOIUXcCmATN/89m3QRAD0FHZgWjADogp0Gqn6LIVCkEfTrmNGLUtQAQB4LaIIn0BPb5uOPD4VoAT0Hzv5z0xegq5Og4fB5dCqAv9JHnwSY6C4Beh34+npQVAHYSiEwevBYI+x16izxITgCLoAX+LOmPPsh5ctLeSM8CuAWa/7x6BgiAZkHHaJFHAbQuQPZN1x2gzV5wBbQCbvcgAMyBoHX4GxmDyD+Qo2QzYtRJADOh+Z9HRqFrEXKcLo8YdRQA6EDQWqw3GyYAmgD9pMxwIwDsy66jrchAzEcOVelVrgWQjuxU+RAj+aeQ1cjBujRi1F4AI6EPOe8jY9ECOmVioQsBoA4ErcF7ZDQGIpcM144YtRNANjL/m+obLgDkXuKXRozaCmAqsjuFHckHgD41/8RBAHHngZ2pvNEX/JM5F1kBU+wEEPITsi8Pkm8QtQU4aOe72ArgWWT+3yRfoT1yflCe+bIABiOXPHwd4jMBUDzyl/OZOgHgDgStHo3RiHyIccAVNJVDLgkgC5j/ox3Ip0BOFN/3Ys2fycA+XBhAPgbyAXqx3R+IKL/R1/xT0CeSgM9ONCeT79HgF0GErzCHeECzrYIJ3+Bl4gPROwQXvsBiEycCoNg/BRvGY1kwcYMrjgg+jManIcQRehYIRoxFbhhxhd6FghMjsT6COMOgc4IV4/BbI+IOw0sEL0ZhS1PiEDeXCWaMwY4WxCVGFwtujMC2VsQphhUJdvRHXjPiFv3EblB3rIkijtHnhGBIX6yKIK7R9ZDgSE/khBHnaL9HsKQflpqJe8SI22Hd8EYQAaDFJsGUPsgwEQSarBFc6YCqOYSC0HcFXZqjIplwYLIIwjTG+TEEhcnlgjMtcTSewPCXs4I17bCtA8Gh537Bm1b4phEBIiZPMKfR9t9MkGiwUnCnASpTCRXB8wR9XuPUjQSMsWIp6CV+60jQ6LJNcOgN3qtP4IhcLlhUf/qXSvgwpVYKJtXh8DXkF7juuOBSDdbEkJ8gdoNgUzkyzeQ3CF8s+FSIcxPIr5AoagcV4ZfO5Gdo+71glRlV6fXI7xCUIkrHGHHgWvJL9NsluGXBsibkp6ifLtiVRVEy+TFuFbVjMthwBfk1YlcJjj2gcm4I+TlMyeKC0C0296cAQMwKwbRLlFjqUWAgQVSQusDarhQwaJRZJQi3x5mUIAokDNspOLdFThsKMISnVQjaL+HobRSAiP9VMH8R1tcbUkAiKElkilRf/A2kgEXj9IBPFysIsMWfI3oHdi+B8nlRFOhI2B24/Of2IAEyJwdob7m8awX5NWiyoDTw6M+/2ySYv3xJmB5gEihIDROs26FdZgAdDJ1LaygYd0KXD6yBQf+FF5sKtl2ie1YASOBCeivBtFv0zPbza8Lz6TGCZY8YsNKPJXDmueaCYVlc4a87guOWxoJdJrS0nPE/+vemhAtm2Y+GHjvoX/SvHhckWFWE4IR1fsN+WfZAQagKDFrqF9WER+a2FFyqROOUvej0r0s0Cx69QNDolcA5IwUvxQkKvUZMyhZI9q25SfUFe9ogPhNuJOVOS3vBm4ZocNfnQBMIjmdcIy77tV8RJuVCnBIXZyeIdZ9OaDtzPef3hUUfjBcHfrqiWVIOt9+C01mJDQRD+qP55OUcrgn3LBwp3vyGod7IhTyNqK1YPaubIMVodEzO5qL75N7MRHHN6yMED3pydbFPz/k/nCq2+z5GSHxqzmmfkJ+dEi92+5yIoO/9WUZ2oSz9YcEdbUXYOUPTMZbPDujOffmmxQ8OqCeiza0KRsx6/zedcgoLVmdMiQ8VMQZYG8aNe/z9n7XbIljzv31t2vXRIrBob4P+dz65ZNWuEvXMn9qckzHj5m7iqcdGi75jpz316sdrd7C9E0qPbsl9b37qpFHdxbmu36FR+97XjZuYPD316bTXMzMz38zOzl6amZmZmZ72r9R/Tkkcc033VgGWxPH/sFfGtrShOnAAAAAASUVORK5CYII=;" vertex="1" parent="1">
                    <mxGeometry x="584" y="-530" width="52" height="52" as="geometry"/>
                </mxCell>
                <mxCell id="50" value="Purchase" style="text;html=1;strokeColor=default;fillColor=none;align=center;verticalAlign=middle;whiteSpace=wrap;rounded=0;fontSize=32;" vertex="1" parent="1">
                    <mxGeometry x="372.5" y="-720" width="450" height="40" as="geometry"/>
                </mxCell>
                <mxCell id="51" value="" style="group" vertex="1" connectable="0" parent="1">
                    <mxGeometry x="262.5" y="-590" width="100" height="130" as="geometry"/>
                </mxCell>
                <mxCell id="52" value="" style="shape=actor;whiteSpace=wrap;html=1;fontSize=18;fillColor=#f8cecc;strokeColor=#b85450;" vertex="1" parent="51">
                    <mxGeometry y="-20" width="100" height="102.14285714285714" as="geometry"/>
                </mxCell>
                <mxCell id="53" value="buyer" style="text;html=1;strokeColor=none;fillColor=none;align=center;verticalAlign=middle;whiteSpace=wrap;rounded=0;fontSize=18;" vertex="1" parent="51">
                    <mxGeometry x="12.5" y="102.14285714285714" width="75" height="27.857142857142854" as="geometry"/>
                </mxCell>
                <mxCell id="54" value="" style="shape=flexArrow;endArrow=classic;html=1;fontSize=18;entryX=0.008;entryY=0.154;entryDx=0;entryDy=0;entryPerimeter=0;" edge="1" parent="1">
                    <mxGeometry width="50" height="50" relative="1" as="geometry">
                        <mxPoint x="361.5" y="-408" as="sourcePoint"/>
                        <mxPoint x="547.5" y="-407.74" as="targetPoint"/>
                    </mxGeometry>
                </mxCell>
                <mxCell id="55" value="lock ether" style="text;html=1;strokeColor=none;fillColor=none;align=center;verticalAlign=middle;whiteSpace=wrap;rounded=0;fontSize=18;" vertex="1" parent="1">
                    <mxGeometry x="552.5" y="-476" width="110" height="30" as="geometry"/>
                </mxCell>
                <mxCell id="56" value="" style="rounded=1;whiteSpace=wrap;html=1;" vertex="1" parent="1">
                    <mxGeometry x="470" y="360" width="500" height="290" as="geometry"/>
                </mxCell>
                <mxCell id="57" value="Block Chain" style="text;html=1;strokeColor=none;fillColor=none;align=center;verticalAlign=middle;whiteSpace=wrap;rounded=0;fontSize=24;" vertex="1" parent="1">
                    <mxGeometry x="595" y="320" width="230" height="30" as="geometry"/>
                </mxCell>
                <mxCell id="58" value="" style="rounded=0;whiteSpace=wrap;html=1;fontSize=24;" vertex="1" parent="1">
                    <mxGeometry x="535" y="419" width="120" height="190" as="geometry"/>
                </mxCell>
                <mxCell id="59" value="Smart Contract" style="text;html=1;strokeColor=none;fillColor=none;align=center;verticalAlign=middle;whiteSpace=wrap;rounded=0;fontSize=18;" vertex="1" parent="1">
                    <mxGeometry x="515" y="390" width="160" height="20" as="geometry"/>
                </mxCell>
                <mxCell id="60" value="" style="shape=cylinder3;whiteSpace=wrap;html=1;boundedLbl=1;backgroundOutline=1;size=15;fontSize=18;" vertex="1" parent="1">
                    <mxGeometry x="750" y="420" width="180" height="190" as="geometry"/>
                </mxCell>
                <mxCell id="61" value="Strage" style="text;html=1;strokeColor=none;fillColor=none;align=center;verticalAlign=middle;whiteSpace=wrap;rounded=0;fontSize=18;" vertex="1" parent="1">
                    <mxGeometry x="760" y="390" width="160" height="20" as="geometry"/>
                </mxCell>
                <mxCell id="62" value="・previous owner" style="text;html=1;strokeColor=none;fillColor=none;align=left;verticalAlign=middle;whiteSpace=wrap;rounded=0;fontSize=18;" vertex="1" parent="1">
                    <mxGeometry x="760" y="460" width="160" height="30" as="geometry"/>
                </mxCell>
                <mxCell id="63" value="・previous trades&lt;br&gt;&amp;nbsp; &amp;nbsp;- timestamp&lt;br&gt;&amp;nbsp; &amp;nbsp;- payment" style="text;html=1;strokeColor=none;fillColor=none;align=left;verticalAlign=middle;whiteSpace=wrap;rounded=0;fontSize=18;" vertex="1" parent="1">
                    <mxGeometry x="760" y="506" width="160" height="76" as="geometry"/>
                </mxCell>
                <mxCell id="64" value="・previous trade" style="text;html=1;strokeColor=none;fillColor=none;align=left;verticalAlign=middle;whiteSpace=wrap;rounded=0;fontSize=18;" vertex="1" parent="1">
                    <mxGeometry x="760" y="484" width="160" height="30" as="geometry"/>
                </mxCell>
                <mxCell id="66" value="" style="shape=flexArrow;endArrow=classic;startArrow=classic;html=1;fontSize=18;" edge="1" parent="1">
                    <mxGeometry width="100" height="100" relative="1" as="geometry">
                        <mxPoint x="660" y="514" as="sourcePoint"/>
                        <mxPoint x="751" y="514" as="targetPoint"/>
                    </mxGeometry>
                </mxCell>
                <mxCell id="67" value="" style="shape=flexArrow;endArrow=classic;html=1;fontSize=18;startArrow=none;" edge="1" parent="1" source="73">
                    <mxGeometry width="50" height="50" relative="1" as="geometry">
                        <mxPoint x="522.5" y="610" as="sourcePoint"/>
                        <mxPoint x="342.5" y="610" as="targetPoint"/>
                    </mxGeometry>
                </mxCell>
                <mxCell id="69" value="unlocked ether" style="text;html=1;strokeColor=none;fillColor=none;align=center;verticalAlign=middle;whiteSpace=wrap;rounded=0;fontSize=18;" vertex="1" parent="1">
                    <mxGeometry x="356.53999999999996" y="620" width="155" height="30" as="geometry"/>
                </mxCell>
                <mxCell id="70" value="" style="group" vertex="1" connectable="0" parent="1">
                    <mxGeometry x="254" y="544" width="100" height="130" as="geometry"/>
                </mxCell>
                <mxCell id="71" value="" style="shape=actor;whiteSpace=wrap;html=1;fontSize=18;fillColor=#dae8fc;strokeColor=#6c8ebf;" vertex="1" parent="70">
                    <mxGeometry width="100" height="102.14285714285714" as="geometry"/>
                </mxCell>
                <mxCell id="72" value="Seller" style="text;html=1;strokeColor=none;fillColor=none;align=center;verticalAlign=middle;whiteSpace=wrap;rounded=0;fontSize=18;" vertex="1" parent="70">
                    <mxGeometry x="12.5" y="102.14285714285714" width="75" height="27.857142857142854" as="geometry"/>
                </mxCell>
                <mxCell id="73" value="" style="shape=image;verticalLabelPosition=bottom;labelBackgroundColor=#ffffff;verticalAlign=top;aspect=fixed;imageAspect=0;image=data:image/png,iVBORw0KGgoAAAANSUhEUgAAAgAAAAIACAMAAADDpiTIAAADAFBMVEUAAAAAAAAAAAAAAAA/AAAzMzMqKiokJCQfHx8cHBwZGRkuFxcqFSonJyckJCQiIiIfHx8eHh4cHBwoGhomGSYkJCQiIiIhISEfHx8eHh4nHR0lHBwkGyQjIyMiIiIgICAfHx8mHh4lHh4kHR0jHCMiGyIhISEgICAfHx8lHx8kHh4jHR0iHCIiHCIhISEgICAlHx8kHx8jHh4jHh4iHSIhHCEhISElICAkHx8jHx8jHh4iHh4iHSIhHSElICAkICAjHx8jHx8iHh4iHh4hHiEhHSEkICAjICAjHx8iHx8iHx8iHh4hHiEkHSEjHSAjICAjHx8iHx8iHx8hHh4kHiEkHiEjHSAjICAiHx8iHx8iHx8hHh4kHiEjHiAjHSAiICAiHx8iHx8hHx8kHh4jHiEjHiAjHiAiICAiHx8iHx8kHx8jHh4jHiEjHiAiHiAiHSAiHx8kHx8jHx8jHx8jHiAiHiAiHiAiHiAiHx8jHx8jHx8jHx8iHiAiHiAiHiAiHiAjHx8jHx8jHx8jHx8iHiAiHiAiHiAjHiAjHx8jHx8jHx8iHx8iHiAiHiAiHiAjHiAjHx8jHx8iHx8iHx8iHyAiHiAjHiAjHiAjHh8jHx8iHx8iHx8iHyAjHiAjHiAjHiAjHh8iHx8iHx8iHx8jHyAjHiAjHiAjHiAiHh8iHx8iHx8iHx8jHyAjHiAjHiAiHiAiHh8iHx8iHx8jHx8jHyAjHiAjHiAiHiAiHh8iHh8jHx8jHx8jHyAjHyAiHiAiHiAiHh8iHh8jHx8jHx8jHyAiHyAiHiAiHiAiHh8jHh8jHx8jHx8jHyAiHyAiHiAiHiAjHh8jHh8jHx8jHx8iHyAiHyAiHiAjHiAjHh8jHh8jHh8iHx8iHyAiHyAiHyAjHiAjHh8jHh8iHh8iHx8iHyAiHyAjHyAjHiAjHh8jHh8iHh8iHx8iHyAjHyAjHyAjHiAjHh8iHh8iHh8iHx8iHyAjHyAjHyAjHiAiHh8iHh8iHh8iHx8jHyAjHyAjHyAjHyC1acVFAAAA/3RSTlMAAQIDBAUGBwgJCgsMDQ4PEBESExQVFhcYGRobHB0eHyAhIiMkJSYnKCkqKywtLi8wMTIzNDU2Nzg5Ojs8PT4/QEFCQ0RFRkdISUpLTE1OT1BRUlNUVVZXWFlaW1xdXl9gYWJjZGVmZ2hpamtsbW5vcHFyc3R1dnd4eXp7fH1+f4CBgoOEhYaHiImKi4yNjo+QkZKTlJWWl5iZmpucnZ6foKGio6SlpqeoqaqrrK2ur7CxsrO0tba3uLm6u7y9vr/AwcLDxMXGx8jJysvMzc7P0NHS09TV1tfY2drb3N3e3+Dh4uPk5ebn6Onq6+zt7u/w8fLz9PX29/j5+vv8/f7rCNk1AAAjP0lEQVR42u1dd3wVZdY+N8klCSShBwKEaugiGKoUC7AIawTFKKibhRWyimIExagselF3jYUSjbqxgMSCBrAQddV8IlJUNCIgSEdCLyFAgPSb+X4hIdw+78ydmfs+977PP/wDl3PO88zMW04hChSEtul344R7H0vL/Ojz3A2/7s0vLCwstEqSJJUUFhYW7N2Rtzb343dfeebhe8Zf3zPaRAL+AVNM/1tT5n20ZvtpSQkqj2z+6p25U0f3iBIhBIW58+jp6V/sLJO8xOm8D5+dPLSlCCgQ9R0TUrPySiRNcSYvKzWho/gycI6I+KT0dRpTb4uz69KT4uuJOHP53Pd74N2dVskAXPhhwYT2IuA8IXr8/PUlkqE49tnjQ0JF5DlAy8T0vCrJJyjPS0sQuwRfImpsxk7JtyhbPbt/sGDCBwgaaFlXIXGBU8uSYwUhhqJ+QuZhiStsSxsRIngxBq0f+KZM4hDHF40NE+zojXYp66wStyjOSRKrQh3R/omNEu8o/nRifcGUHmiSlFslQaA4O8Es+NIWYRO/qJCAcCKjvyBNO8Snn5TgsD21hWBOCzR/eKuEifLPxoqtodcPf2axBIwjaW0Fh+oRmbxJQoc1N0FkEahD3MtFkl9g5/0Rgk3FGJJdKfkNzqaLBAJFCL3nd8m/ULlskKCVFREpByU/xDqxGGDb9llOSX6KLUliWyiHNhklkh9jX7JIKfWE2HS/pr8a+Sniztgd2vo//dU4ICTgEs3SAoL+ixJIFmsBp5V/6lkpgLA9UewIbBE+q0AKMPw8QtB+CabEfVIAIreXoP4iBq6XAhPWLFF0TBT3sRS4KJodHuD017eUSgGNg0kBzX9CvhTwWNUjYOnv+o2gvzpzLD0wawnCLeWC/BocDcTvwLAdgvjL+CLQEkYaZVYJ1m1RbAmoa8LEo4JyR2yKDxj6Y5YLul2gIi0wbglNSacE2a6xe1gA8N95rSDaLSpf8vuXQNI5QbMnbOvt34v/pYJiGZSkBvkv/8MPCYIZrolb+Sn9ZotVsMuCEzf7Jf/dNgpqWZHVwP82f8kXBK/s2H61n/Ef/YUgVRHKZvlV1mj8fkGpUnze2H/4Ty4TfKo4F7zST+gPe0uQqe6GcJJf8B+7QVCpFpl+0G/wuuOCR/VYG4O++0utFCx6g8PXQPMfKW7+vUVFKjD/cSLvTwMsgk0WG3RCsKcF1jXD5P+2YsGdRicCcYj8p4i7P81wcjAc/SGvCdo0RMntYPxHiMsfbVFlgeK/lbj71/5UEKivUK8Dgi/t8VUkCv+jROavLvgFZDt4U4ngSh9sb43A/wRR9a0b/uzEP/9TxfZfRxzozDv/0wT/uuIY573lUgVFOqNwAM/8WwRBuuPcDfxmfywQ9BiAC3/hlP8gkfxpDEr5LB0zZQpqDEL5TTwK4EVBjGEoG8Uf//8WtBi5DhjKG/+zBSmG4gxnPcWmC0oMxkmuWgxPEm0fjT8T7MJR+qeo/vABDnDTXnasuP/zCXZzUjc2qlRw4RtsacID/31E/o/PsJaDvpKtDgoefIePfN5IJmoLcPhq164VwC7828f8m78GDl5pVs2f85HfAff5VgDQ9T9z59T8GYNcxFzu08vhJ5D5z29QK4CmI5HdKLrKd/wnQicAjqNLAqAVyH4cauMr/odAFwB8Q5cFEHse2ZONEb7hvxN0/4eyLjYCwP6WSV/6pGwwCrv/SxrZCiB0J7Qz83yRAYbd/+lghJ0ACHodKEl/ExkgCnEH2QuAsPV8vqfR/A/HvgFeY3IUQCz2lcauRsby3+4kdLgqavow2wqAHsd+pa00dNRQWB52tGoXTXYCqLcd26fZRgrgbexYHWvoQgA0Atsp62gDS4CxQ1W3ZrYXAGVje1XY0Sj+B4KnAK0zuRZAG/DUlk31jeE/Gnz6X2XdcE4HAcAXty825gQoBzxMr5A7AdT7A9y1O0UNiDwKmroVAA0H9+2MAZni3dFbQN9D7gVAH4E7ty5Yb/5DN4GHKC/IkwDQ14HSv/QWwHzwAFltW+w4C4AeBfevYpC+/I9ELwLMJM8CCNkC7uDeKD35b4zeBLiwuYwAaBi6xBfpKQDwszLHJGpXAqCl6D5O0I//ZPTYbAyWF0DLs+BOnm6rF/+dz4OHpsphCJ9LAdAj6DJfpdPNcNAa9Mg4HpW6FgD8OlCapo8A7kOPy9kYJgHQUPR14NlYXcqAT6MLIIXYBEAfoHv6hR4C+AQ9KlvNrAJoeQbd1zu05/929JhI1xOrAOhhdF9Paj5dpuFh9Jh8QOwCCNmM7q3mx0GL0CNyrrUCAdAQ+L53I7Xl/zr4gDxKSgRA76H7+2cDLfkP340ej12hygTQAn4d+IKWAsDvBH4jKRMAzUT3uLKvdvz3qkCPxnJSKgD888A87U6Ev0OPRXF7xQLwg3Vgslb83wn/AXCTKOVRAPQuutenNDoMiDiEHok9YWoE0AL+7PtVbQTwPPwL4K+kRgD0EPw6sLcW/MeVocchh9QJAP88cI0WAvgUPQqlnVUKgAbDrwPHe8//tfAfgLmkVgCUhe773lCvKwF/QY/BgQbqBYC/DpzhrQD+Bv8CuIXUC4BS0L0vbOrlJUA+egS+Jm8EEIJeCSct8E4A6JVSUllXrwSAvw4s6+BVGkgBugCeI+8EQO+gR+ANbwTwLLr3hyK8FUA0+jqwvJN6/psXoQvAc3IkiwDwh6K+o14Ar8CfhJm8F0DwRvAgVHZVy3879EPgCpn5ukwCoGvQ14EfqBXAf9FfAPNJCwHQYvAwWHup4z8WfSLopYag3goguhA8EMvVCeA19BeAbBN9RgHQA+CBqOqnhv826C+A9SatBBD0M3goctQIIAN98SufDcEqABqEvg4coJz/Fuj9ADNIOwGgt0eXVioXwHPgLhc01VIATcHPxKsUj5SJQj8BnUJaCgC+Q/6SQLsGZKqKUCCAoA3Y8Shvp4z/UPBqcCvTqkeBAKivFTsiC5UJ4B7wF8CbpLUA6C3siJxvokgA4AnR9g1BtRFAU+xBadLjSvgHn6PJ2idNkQDQu6QdNisQwOfYvm4M1kMA6OvAiQqKgbAXPFXDSA8BoK8DfwmYRBDmFBiFAqA3sOPCPEogCjsT7ExLvQTQDPs8cCmrn+CnXg+RXgKgf0IHpqwFo5vYzVG2mfUTQNBP0KF5jM3LodgvgOtJPwFQPPQ6MJ9td4TdKllJBqRyAVAmdHCY5ks3g84EutBWXwE0gT4P/IzFReyBGY+SvgLAHptTGevvS8BdoXoLIOhHP18G9vf/j5xXAqD4SuD47JRNlKXXkflXmACvSgDYERos510YchFEcXsjBND4BHCI3pLzbiKyvOeQEQKgKcAhKpLrIv8lsHPuGoJqLQDodeBdMh0ByoF9u4mMEQBdDbwO/Nyza/cD8/8VGSUA5LLJimiPnq3H9cx9Q1DtBYC8DrzPY0sI4Bq4p8k4ASBnTXvsH/w4rl/76xspANMPsIGq8nRb8huuAG4lIwVAfXDXgTPde9UBl/9cMlYAwNXz6907NQvWqbKuRgug8XHYb4D7K0HchKc0MloA9A/YYD3gzqXWsHuAo1HGC8D0PWq0vnPnEm4vpAlkvACoN+o6sNLdWVAuKv9rTb4QAG79zGQ39SCojUErVDZC9FYAUUdAA+YmbeI2VEHPJ98IgCaBBuyc68Q51M74xxr5SgCm1aAhG+nylvsYqDdJ5CsBUE/Qqdou+8UMRD3YMvlOAJSOGbM9rnyxYPpi7Uc+FADqOrCT/6QCZJAvBUB/x4yai6SASMxksFNNfSsA0HXgx86ejMOU8hTyrQCoJ+SDczrEyZFXIflnagiqqwBoIWTgnNvF7IRcAfYnnwug4VHEyD3p6EYMpI7fJN8LAHO8stON4J2IXjA2BNVZAKbvAENX4lhEAzkh7H7iQQDUA3EdOMTBiT8AfdgSwocAaAFg8GY7lIQBJgMxNwTVXQCRgM31v8a/Cl5CvAiA7saL3jn7bnrz8Tw425IfASCeB/a18wCw0GUG8SMAxHWg3QrajDcjbpuZJwHQPLgAZtmaD9gZ6nriSgCRh9ACuMvW/Olw/C8lvgSAd5JW1czG+vfQrL/QjjcB0LdoMRyDfBOUStwJAG4daLFJbELrga2sIagxAqCXwIJo0zgYrkH8aOJQAGjrwAOXTX8QjP8VxKMA4HosXl4FLsYyvLgDnwJAWweOqDMcrDPMHG3oCrtnV+2Wsq9GAuiOtQ6cdcnuelh2K24I6hItn7Zp8bH2tmBNFPACVCDfr0tsxXoB3KQBU70zHQ6/D1uaaPCzEVDrwE2XzL4Div+vvKYpKMFVJ4Rzmd28VwBUKEuCEYvCyjp7u1tL3uHmp625CSZvFfA/pFjG1Rq9DMnoZ7wjqGOax4EIO1Lqe/f7cUgjt8bWGr0N6fSigTf0DMmW7etzIq2NVwp4HiiYT9QmAyBtAsarpyZ0ksN298fa9/XL9qPgyrKu9mYdeBAnmO/VmNwZiP9c1cREp9qv0K05g+sOgkKTfrf/b/KS1Ccc344TzZ9rLB4DtALsqpKVqxy2fWfS29qfBDp+HPalNvb/dWAh3E3A8+q2fSNy7LPed6c0cD4KviL9vN1fKsrs6vfrwJqzD5w2J6oagkYmb7f/lXV1mz2Hu4ColP2abAufgwloTW3tFzD2TlRORgeHbV9pVk8Pl0FOR0SbksOV/5/1/0QJ6J1Y6UDKG4LGZ9m38TpqaSZ3GxifZb8pOp7WWrECYMpsLhaJB6E0CK3oqYyGekkb7X9gw0Qzy3Vwm+dO2b80FvdWqoCvQUL6DlRngAWKOGieetBh2zeCOR8gNGmrw7IhMdgv14GrkGoCFDUE7ZJuv+07m95OWULIEIeNw15l28L/YMR0N9IH6+/eb/sUZQTFOW0Lu/jdOrC0elU1A4N/5oagEcl/sL6/ZVLCGqbky35F3GE8RlSjYQqDWRuCtrI4rOCyrvQiJzA4YZ29Gb8xbwsxNtfxRPQRhKWvsd32Lbc/0D08u5m3SaGDPnLYSc6J9qN14DgiWotg6KlmDNu+RIci943JYVpkBcdYChxeKkwDKp5FiOt9KOdAU2Xj3SjlgOIPNmtaeFjSNuXbwvB9AHF9iojOANgp2xC0c/oFh21fe03rAkyOG4s9qbK70lswvqxhCCvAgZqzo7wwRLnGANaBK4jaAgjgTc/bPhXvZ1WVQQ0VfmWuKOE+smuJ+vHPv6eGoDFO2z4FI8QUl4aZla0zn+E+tLuIRvMvAPcNQa/JdtyjKWoeq6Y2cMgy9p1mOPfngYUIrU1+D3H3OK5Xe0rjVXGogrMm7ocwWINoGu82Vl2ryQdZy+pg9tPmz3mPbkN6gncTl7i+qbFfkiu6qdGgPJz1vqkT7+vA9twXMhS1kt/27VWZwutVfwDnbaGrG+e5nIe3N2VybuEM52M5L7M1NGsQwZJzEr6X7/BeRx/ybeBWhyyuWMckT+X5WpoJoDrr7Fd7c52yzuhmvuM7jvdlyg2kdcamlgKQzzslyuE6vndy3tfmQ7uyfofLeVU521oLQCbznPd14BT6kWfzbBqCOqXnaFDMr1WTqAj3tSe8t194kDbzbN5jdcfqWtVt6SIAz9tCrteBqbSLY+t2h7pO0fWiclMnAbitP63GjRyH2EI8tzUaXZOkr2Htto4CcF2BfhEr+Q3xC3SSX+M+vlimY5+PVbbkatIMWjeKdNGD4o5qsXbkdx7Hy3SaW9uKO9DVDts+b/u36C2Ai40G7LeFRyxNiZ7iNsivUhG/nyfHUl2vOzgZIQDnPlQlWT1CuU28zKTz3ArguP0HdeVw0hr6CIAo6iH7hX/Vl9yOGH+bMGqDNeniaJgA3PWi5BDvUCWAldr0cTVSAK660XKJd4n/mbFadXI2WABELece5z64S3kXQHn2ININOgug+rZwM+cCeJ8qeDbvTHosEbAA2JqT+hJZxPFd1U6tt32+EED1tpDfsxZpEbfbwCoNbvv4EABRZAq3+eFvcloaWPJqZ9IfRgmAKHj8Oj4F8F8q5PP5z471KwFQ/Ho+BZBBvO5Uzj5Sz38E0HIxr5uthbSf2/XJrr/6iQDMKfyW4P+HtnO8R8nt5g8CGL6V4xDPoV+5PgZKj0QXQKdsrg+CHqF1XNsnHU4yIQugvoXz2rBp9A3vp9U/D8AVQEI+79GdTJ9yf19hzYrGFEAfgAZsd9C7/BspnU4JwRNAk3SEm/Yx9IqEgB2jwAQQknwSIrCDAPrY1CCnA5IArt8CEtZu9DCIpVJxWgSKANpkoQRViqF7YGyVDiZBCCDcUowT0zCUvuY1+O5K/gWQ8CdQQEuJbkASgFSR3ohvAfT6DiqeR4l6Slg4lRLMrwAap1dgRXMzUXMJDRuHcCqAoKQTaLH8hiioAk4BVdlteRTAsE1wkZTeJaKjeGZLFyxhvAmgdVYVYCDnERGgbqt7RyRyJYB6KUWQYXwUaMqlI3K78yOAhL2gQZxERIu5tGzPYdm/UvZ8JB8C6M5wpb6ez5uh6iuWp7m0zJrAkEpxJDnI9wJolCZfYL3rJk77cVa32prKp2mHml7BkEz1yyAfC8CUdEzWyPOW0EmcfgIiOO5htYIpnbIqq4UvBdBPvs1idYlDh7OcnqpV+9CD1wXK36sTquUjdzq1nq8EEJNplTXv18FEQd9zGuLfLhau8SqAc3GMMd452icCYFFnwcWDa257RK286Ai3tavrLyaCDfyF4XPRwXgB/FW+xWb5gotXVwO4PWzNuOhJHre71DnM66yy9AhjBRDH0AT825qm0Q34nc1aM4yB34kBFbUDIyMs8jutQyoKCFQLoIFFfjT0gUvpK2/zew6UcNFAjqcc77101NOZYQrn6l4GCcCUeEDWmMu3FTxPDqspvZvMsYVvKTlttWY1N0IAVzMUU+XUjZVtVcBvdK01Ih3KsQCk2xXdtxQqyxZRI4CmDOn+f/zl8tviS46Dm1+7m+VZAAU2Q8NiGVYrvw3VVQDmmfKV3qem2ahwBs/B/bbWyNM8G/mNSWHORU47/QRww+8Kv0M9uE4Qzqi18geejZQeUpp1xZ4tolAAsQzp/quvsv0XoXy3CZxWa+abXFtZepXivMsDSToIgKXS23EvupDryErX1Zo5k28ztznMBuvKkMLybU+tBZAg30unzLGdxUjOs8QuVV2P4ttMaYGK2ovy9IZaCqD3GobFR0eHf9TsCN9xPVn3beNcAFVj1LyOC+S3hKwCYKn0dnEjlc15XFfX7VULObf0SDOn4Hb4WP6fbeiviQBCHpCPz+mHzE7/bgrnUa3bBBCt4t3UT9RVYFdltfReANdtZvh/XGSldOI+T/gfdbbO491U6R6XPRjkT1nPW0K9E0AbhnR/l3lpIT9yH9Q+dcbezb2t5zur/TZ7ajcpK4Dw1HPy3yfXman8N94ov/xsdOfeWCnPrPpixn27STkBJOxj2G1Eufyng/lvELTpsrXBF/hXwNPurmbzGUiKVCOALl8xiMtNdUrEbv4jutjG3h/4N7dysJvHNPJ5+WyRgxNNSgXQ+GX5E0f3n5cl/AdUetDG3gUA9u6LchftKxjSszYMUCSAoCT5LuoeFpgQbVdsN8kTEAxe4n41N2Kb7L921W7SrQD6/yS/9fNQo976FEA4S23l2wFBANIE71K0C53aTboRQCuGrd+vHrpUBH2LEM31djYfQzD5dFsvizS2j2IQgJkh88hzn5pHIR6neXY2fwZh8xqPp/t9GY5eLufquRNAwh7ZH6nIbObJjj4Y03hvtzP6cQibpVmee/RMYcgWeTLckwBYrpr/r4fnNoF/YMTSPnFqKIbR5f28L9W2aTfpKACWdH/ZbpWvYoTygEOLkwsYZv8hN0qyM0MW7qorXQqApQKp2BIuY8AokFZBWQ52o/Q3zNCiXculj7idAPoynIbZLyFcoTlKz60pDobPBbG76iaGhk3yNzg1y3gbAajZRLjCSpA4SnEOhg9HMfxES21atlW3m6wTgLpjBBe4DyWMR52SrMpQTF/JUgTKlMXR6pIARsvX71a+zpI62vUCShQ/dLJ9NYrp0r0sSbzB98sfxxbVFsYzJESt6c3ULTAPJohTnYyfDWP7ha5MefyNtZvZwzq7Lg0mhpJzR43+OMb/ytgUqLc2rXnKWKdXDq2ECeFOF+/MUzgKeI65g6cGk5Gd0v3doeF+nAi62k0vxzHfej2rArye3LlzDHPl6Ac4AZTGurA/Gcj+fPa5IR29mYx5ZqaZ+T+6Cyh+Fa7KpmKR2p0vU9AFgKGm291GUUETyjaFQOH7zqULUH3j71SggJCUM2r+C0VtaIOgZgU9QpiZ7LYv5/YK2GHq6+J4VKasEfUTSMGTXG+kB0L5sFbZ7CiWAgIbuEv3d/vzZUix2+vmLYY1POZx7Xu71UEm58N5s7EDKnQL3LixGMqL8r4K2/tFvcD4mO5OUNpwMBMqctJIN27cjOXGbsXdYVn6u6oZSDUaa17UaXcnqaFgg4/+q7zF7wjZhL0c5SPpoo9hxW2xW08+wnJEulm5AmRu/tUMpTR9DhY29zk1t4N5cjJGOV0U4z5bRN1Y2ulgUSty/4mLKAbz5WuTCsLczXmRSfd3h+5oQXvfgzOfgvkiTVdDGQUluyggYOss57xwghu8Od6DNxPRnCm5UhVrzgUEB5PU/RC9hBayIk+J7fXPobnzu9ohwl3+Z/MrxWkRKn9mmBUtYu949Oc9NHekF0ktLjeAyemg9jca5cMFzHNu+xg4f6zDVSsgfFnNT4xR/Qvc94J0xnHPye0hx+E8OqR+7qPXgyMnwUVLelnGpQw8l7J9JoCOgDPjr5HxqT+eS9UjRn0igJAf8GK1S/bkZAueU+fifCOApwAfFvlL9EcAvfrZ7AsB9C3Hi5Q1VtatFoBuSU/6QAAcDwR1jy8ZHPsM0K+KQcYLYBFgnKREBsfGIjq2J8JoAYxHDFNBKMva9iCia28bLACeB4J6e2yKuLh17HqmtwC4HgjqFlWd2TImEJeBUmGskQKYCfmQ5DJ6twLTuyDjBNCjBDJE4xndGwnpnTTDMAFwPhDUHY6wHpeYdkL6V9rLKAEsxHxC5jI7eD+mg9vCjRHAyCrMB6Qls4f1T2EqYKEhAuB9IKg7LFbg44uYLlaNMUIA2ZjBkXor8LFdBaaPx1voL4CpoPx/p8jLZaBefqq7ADoVgYZmrKLQDAL10qkHstYCMG8ADcwuhUVP34P6eb6zvgJ4JiCeDMj04FrkmfUUwOBK0LAcVVw/sRFVAU/rKACEgaCuMUvxMeldqK5ar9VPAFmoQTnbUHnK6z5UZ/dF6SWAO1BDwt5c1wbJsN4u0UkArU+hRuR8tAoBmP+EVcAEXQSAMRDUJV5QlfV4L6y/p9vqIYBHpYB6ARCZ98N6vCZYewH0KYMNh9oK6mmwHjPuepQIIGwLbDBKYlQKIDQf1ueyPloL4FUp4F4ARJNxnZYdMapQAKOqYENRFK1aAMHbcBWQoakAmh/FjcQcUo/xuG4zjBhVIICVuIE4GemFAEw/4TrOMGKUWQD34YZBeoi8wQhgz3NMWgkAZyCoM/LDvBIA/Q9YAfdqJADYJJBq3OUd/9StAtd32RGjjAJIA+Z/Y5CXAkCbhWAHuRGjbAIYWgkcgmHe8k/RZ4Hdf04DATTcDxyAFeQ9ZgP7LzNilEkAHwD7Xx6ngQDC/wSOgOcRoywCuBvYe2keaYFbkUOwzEsBxBYCO3+soSYCgN4KetwGyQsAayCoI5K04Z/iSoGD4GnEqLwAkBdA0g8mjQSANxTBFuuC1QsgvgzYcWt/rfinqMPICnhCtQAa7ET2+3XSDonIgagYoFYAbyC7faSxhgJAvg6VpD2R6gQwFtlp6RYt+ae255BjkalKAGgDQe2xnLTFo9BPw20qBAA3ENR+89NaYwGEbEIOh5vkEI8CmA4t+amkNXqXI8fD9YhRTwKAGwhqh9UmzQVA/4F+IqYrFEAo9BuvtJv2/FPoVuiQ9FImgHnQcn+M9MAA5MQIaWuYEgFca0X2dbNZFwFgnwhLLykQQJODyJ5W9NWHf9QeybVwMWLUrQA+hJa6hfRCD+iVsfOIUXcCmATN/89m3QRAD0FHZgWjADogp0Gqn6LIVCkEfTrmNGLUtQAQB4LaIIn0BPb5uOPD4VoAT0Hzv5z0xegq5Og4fB5dCqAv9JHnwSY6C4Beh34+npQVAHYSiEwevBYI+x16izxITgCLoAX+LOmPPsh5ctLeSM8CuAWa/7x6BgiAZkHHaJFHAbQuQPZN1x2gzV5wBbQCbvcgAMyBoHX4GxmDyD+Qo2QzYtRJADOh+Z9HRqFrEXKcLo8YdRQA6EDQWqw3GyYAmgD9pMxwIwDsy66jrchAzEcOVelVrgWQjuxU+RAj+aeQ1cjBujRi1F4AI6EPOe8jY9ECOmVioQsBoA4ErcF7ZDQGIpcM144YtRNANjL/m+obLgDkXuKXRozaCmAqsjuFHckHgD41/8RBAHHngZ2pvNEX/JM5F1kBU+wEEPITsi8Pkm8QtQU4aOe72ArgWWT+3yRfoT1yflCe+bIABiOXPHwd4jMBUDzyl/OZOgHgDgStHo3RiHyIccAVNJVDLgkgC5j/ox3Ip0BOFN/3Ys2fycA+XBhAPgbyAXqx3R+IKL/R1/xT0CeSgM9ONCeT79HgF0GErzCHeECzrYIJ3+Bl4gPROwQXvsBiEycCoNg/BRvGY1kwcYMrjgg+jManIcQRehYIRoxFbhhxhd6FghMjsT6COMOgc4IV4/BbI+IOw0sEL0ZhS1PiEDeXCWaMwY4WxCVGFwtujMC2VsQphhUJdvRHXjPiFv3EblB3rIkijtHnhGBIX6yKIK7R9ZDgSE/khBHnaL9HsKQflpqJe8SI22Hd8EYQAaDFJsGUPsgwEQSarBFc6YCqOYSC0HcFXZqjIplwYLIIwjTG+TEEhcnlgjMtcTSewPCXs4I17bCtA8Gh537Bm1b4phEBIiZPMKfR9t9MkGiwUnCnASpTCRXB8wR9XuPUjQSMsWIp6CV+60jQ6LJNcOgN3qtP4IhcLlhUf/qXSvgwpVYKJtXh8DXkF7juuOBSDdbEkJ8gdoNgUzkyzeQ3CF8s+FSIcxPIr5AoagcV4ZfO5Gdo+71glRlV6fXI7xCUIkrHGHHgWvJL9NsluGXBsibkp6ifLtiVRVEy+TFuFbVjMthwBfk1YlcJjj2gcm4I+TlMyeKC0C0296cAQMwKwbRLlFjqUWAgQVSQusDarhQwaJRZJQi3x5mUIAokDNspOLdFThsKMISnVQjaL+HobRSAiP9VMH8R1tcbUkAiKElkilRf/A2kgEXj9IBPFysIsMWfI3oHdi+B8nlRFOhI2B24/Of2IAEyJwdob7m8awX5NWiyoDTw6M+/2ySYv3xJmB5gEihIDROs26FdZgAdDJ1LaygYd0KXD6yBQf+FF5sKtl2ie1YASOBCeivBtFv0zPbza8Lz6TGCZY8YsNKPJXDmueaCYVlc4a87guOWxoJdJrS0nPE/+vemhAtm2Y+GHjvoX/SvHhckWFWE4IR1fsN+WfZAQagKDFrqF9WER+a2FFyqROOUvej0r0s0Cx69QNDolcA5IwUvxQkKvUZMyhZI9q25SfUFe9ogPhNuJOVOS3vBm4ZocNfnQBMIjmdcIy77tV8RJuVCnBIXZyeIdZ9OaDtzPef3hUUfjBcHfrqiWVIOt9+C01mJDQRD+qP55OUcrgn3LBwp3vyGod7IhTyNqK1YPaubIMVodEzO5qL75N7MRHHN6yMED3pydbFPz/k/nCq2+z5GSHxqzmmfkJ+dEi92+5yIoO/9WUZ2oSz9YcEdbUXYOUPTMZbPDujOffmmxQ8OqCeiza0KRsx6/zedcgoLVmdMiQ8VMQZYG8aNe/z9n7XbIljzv31t2vXRIrBob4P+dz65ZNWuEvXMn9qckzHj5m7iqcdGi75jpz316sdrd7C9E0qPbsl9b37qpFHdxbmu36FR+97XjZuYPD316bTXMzMz38zOzl6amZmZmZ72r9R/Tkkcc033VgGWxPH/sFfGtrShOnAAAAAASUVORK5CYII=;" vertex="1" parent="1">
                    <mxGeometry x="401.5" y="582" width="52" height="52" as="geometry"/>
                </mxCell>
                <mxCell id="74" value="" style="shape=flexArrow;endArrow=none;html=1;fontSize=18;" edge="1" parent="1" target="73">
                    <mxGeometry width="50" height="50" relative="1" as="geometry">
                        <mxPoint x="532" y="608" as="sourcePoint"/>
                        <mxPoint x="350" y="490" as="targetPoint"/>
                    </mxGeometry>
                </mxCell>
                <mxCell id="75" value="Receive" style="text;html=1;strokeColor=default;fillColor=none;align=center;verticalAlign=middle;whiteSpace=wrap;rounded=0;fontSize=32;" vertex="1" parent="1">
                    <mxGeometry x="360" y="270" width="450" height="40" as="geometry"/>
                </mxCell>
                <mxCell id="76" value="" style="group" vertex="1" connectable="0" parent="1">
                    <mxGeometry x="250" y="400" width="100" height="130" as="geometry"/>
                </mxCell>
                <mxCell id="77" value="" style="shape=actor;whiteSpace=wrap;html=1;fontSize=18;fillColor=#f8cecc;strokeColor=#b85450;" vertex="1" parent="76">
                    <mxGeometry y="-20" width="100" height="102.14285714285714" as="geometry"/>
                </mxCell>
                <mxCell id="78" value="buyer" style="text;html=1;strokeColor=none;fillColor=none;align=center;verticalAlign=middle;whiteSpace=wrap;rounded=0;fontSize=18;" vertex="1" parent="76">
                    <mxGeometry x="12.5" y="102.14285714285714" width="75" height="27.857142857142854" as="geometry"/>
                </mxCell>
                <mxCell id="87" value="When buyer purchase a NFT, ether is locked in Block Chain.&lt;br&gt;Seller cannot receive locked ether till time elasped." style="text;html=1;strokeColor=none;fillColor=none;align=left;verticalAlign=top;whiteSpace=wrap;rounded=0;fontSize=16;" vertex="1" parent="1">
                    <mxGeometry x="488.75" y="-320" width="487.5" height="60" as="geometry"/>
                </mxCell>
                <mxCell id="88" value="If buyer cool of, buyer can receive locked ether and seller receive the NFT. Seller cannot receive ether.&amp;nbsp;&amp;nbsp;" style="text;html=1;strokeColor=none;fillColor=none;align=left;verticalAlign=top;whiteSpace=wrap;rounded=0;fontSize=16;" vertex="1" parent="1">
                    <mxGeometry x="492.5" y="190" width="487.5" height="60" as="geometry"/>
                </mxCell>
                <mxCell id="89" value="When time elapsed, seller can receive unlocked ether.&lt;br&gt;Buyer cannot cool off after time elapsed" style="text;html=1;strokeColor=none;fillColor=none;align=left;verticalAlign=top;whiteSpace=wrap;rounded=0;fontSize=16;" vertex="1" parent="1">
                    <mxGeometry x="488.75" y="670" width="487.5" height="60" as="geometry"/>
                </mxCell>
                <mxCell id="92" value="Receive" style="text;html=1;strokeColor=none;fillColor=none;align=center;verticalAlign=middle;whiteSpace=wrap;rounded=0;fontSize=18;" vertex="1" parent="1">
                    <mxGeometry x="379.03999999999996" y="540" width="110" height="30" as="geometry"/>
                </mxCell>
                <mxCell id="93" value="" style="shape=flexArrow;endArrow=classic;html=1;fontSize=18;entryX=0.008;entryY=0.154;entryDx=0;entryDy=0;entryPerimeter=0;" edge="1" parent="1">
                    <mxGeometry width="50" height="50" relative="1" as="geometry">
                        <mxPoint x="349.03999999999996" y="578" as="sourcePoint"/>
                        <mxPoint x="535" y="578.26" as="targetPoint"/>
                    </mxGeometry>
                </mxCell>
            </root>
        </mxGraphModel>
    </diagram>
</mxfile>